<?xml version="1.0" encoding="UTF-8" standalone="no"?>
<!DOCTYPE svg PUBLIC "-//W3C//DTD SVG 1.1//EN"
 "http://www.w3.org/Graphics/SVG/1.1/DTD/svg11.dtd">
<!-- Generated by graphviz version 2.40.1 (20161225.0304)
 -->
<!-- Title: /home/finlay/RTEP1/Rpi_end/200322_Rpi_end_together/GPIOlis.h Pages: 1 -->
<svg width="377pt" height="206pt"
 viewBox="0.00 0.00 376.50 206.00" xmlns="http://www.w3.org/2000/svg" xmlns:xlink="http://www.w3.org/1999/xlink">
<g id="graph0" class="graph" transform="scale(1 1) rotate(0) translate(4 202)">
<title>/home/finlay/RTEP1/Rpi_end/200322_Rpi_end_together/GPIOlis.h</title>
<polygon fill="#ffffff" stroke="transparent" points="-4,4 -4,-202 372.5,-202 372.5,4 -4,4"/>
<!-- Node1 -->
<g id="node1" class="node">
<title>Node1</title>
<g id="a_node1"><a xlink:title="Threading and interrupts.">
<polygon fill="#bfbfbf" stroke="#000000" points="151,-156.5 151,-197.5 275,-197.5 275,-156.5 151,-156.5"/>
<text text-anchor="start" x="159" y="-185.5" font-family="Helvetica,sans-Serif" font-size="10.00" fill="#000000">/home/finlay/RTEP1</text>
<text text-anchor="start" x="159" y="-174.5" font-family="Helvetica,sans-Serif" font-size="10.00" fill="#000000">/Rpi_end/200322_Rpi</text>
<text text-anchor="middle" x="213" y="-163.5" font-family="Helvetica,sans-Serif" font-size="10.00" fill="#000000">_end_together/GPIOlis.h</text>
</a>
</g>
</g>
<!-- Node2 -->
<g id="node2" class="node">
<title>Node2</title>
<g id="a_node2"><a xlink:href="_g_p_i_olis_8cpp.html" target="_top" xlink:title=" ">
<polygon fill="#ffffff" stroke="#000000" points="0,-78.5 0,-119.5 134,-119.5 134,-78.5 0,-78.5"/>
<text text-anchor="start" x="8" y="-107.5" font-family="Helvetica,sans-Serif" font-size="10.00" fill="#000000">/home/finlay/RTEP1</text>
<text text-anchor="start" x="8" y="-96.5" font-family="Helvetica,sans-Serif" font-size="10.00" fill="#000000">/Rpi_end/200322_Rpi</text>
<text text-anchor="middle" x="67" y="-85.5" font-family="Helvetica,sans-Serif" font-size="10.00" fill="#000000">_end_together/GPIOlis.cpp</text>
</a>
</g>
</g>
<!-- Node1&#45;&gt;Node2 -->
<g id="edge1" class="edge">
<title>Node1&#45;&gt;Node2</title>
<path fill="none" stroke="#191970" d="M165.2702,-151.5005C145.8685,-141.1352 123.7501,-129.3185 105.4164,-119.5239"/>
<polygon fill="#191970" stroke="#191970" points="163.7885,-154.6771 174.258,-156.3022 167.0871,-148.5029 163.7885,-154.6771"/>
</g>
<!-- Node3 -->
<g id="node3" class="node">
<title>Node3</title>
<g id="a_node3"><a xlink:href="window_8h.html" target="_top" xlink:title=" ">
<polygon fill="#ffffff" stroke="#000000" points="152,-78.5 152,-119.5 274,-119.5 274,-78.5 152,-78.5"/>
<text text-anchor="start" x="160" y="-107.5" font-family="Helvetica,sans-Serif" font-size="10.00" fill="#000000">/home/finlay/RTEP1</text>
<text text-anchor="start" x="160" y="-96.5" font-family="Helvetica,sans-Serif" font-size="10.00" fill="#000000">/Rpi_end/200322_Rpi</text>
<text text-anchor="middle" x="213" y="-85.5" font-family="Helvetica,sans-Serif" font-size="10.00" fill="#000000">_end_together/window.h</text>
</a>
</g>
</g>
<!-- Node1&#45;&gt;Node3 -->
<g id="edge2" class="edge">
<title>Node1&#45;&gt;Node3</title>
<path fill="none" stroke="#191970" d="M213,-146.0789C213,-137.2178 213,-127.7747 213,-119.6898"/>
<polygon fill="#191970" stroke="#191970" points="209.5001,-146.0974 213,-156.0974 216.5001,-146.0975 209.5001,-146.0974"/>
</g>
<!-- Node5 -->
<g id="node5" class="node">
<title>Node5</title>
<g id="a_node5"><a xlink:href="window_8cpp.html" target="_top" xlink:title=" ">
<polygon fill="#ffffff" stroke="#000000" points="235.5,-.5 235.5,-41.5 368.5,-41.5 368.5,-.5 235.5,-.5"/>
<text text-anchor="start" x="243.5" y="-29.5" font-family="Helvetica,sans-Serif" font-size="10.00" fill="#000000">/home/finlay/RTEP1</text>
<text text-anchor="start" x="243.5" y="-18.5" font-family="Helvetica,sans-Serif" font-size="10.00" fill="#000000">/Rpi_end/200322_Rpi</text>
<text text-anchor="middle" x="302" y="-7.5" font-family="Helvetica,sans-Serif" font-size="10.00" fill="#000000">_end_together/window.cpp</text>
</a>
</g>
</g>
<!-- Node1&#45;&gt;Node5 -->
<g id="edge5" class="edge">
<title>Node1&#45;&gt;Node5</title>
<path fill="none" stroke="#191970" d="M255.441,-150.3017C265.905,-141.8147 276.0826,-131.579 283,-120 297.4507,-95.8109 301.2401,-62.8903 302.0625,-41.7882"/>
<polygon fill="#191970" stroke="#191970" points="253.2372,-147.581 247.4325,-156.4442 257.4974,-153.1354 253.2372,-147.581"/>
</g>
<!-- Node4 -->
<g id="node4" class="node">
<title>Node4</title>
<g id="a_node4"><a xlink:href="_rpi__end_2200322___rpi__end__together_2main_8cpp.html" target="_top" xlink:title=" ">
<polygon fill="#ffffff" stroke="#000000" points="96.5,-.5 96.5,-41.5 217.5,-41.5 217.5,-.5 96.5,-.5"/>
<text text-anchor="start" x="104.5" y="-29.5" font-family="Helvetica,sans-Serif" font-size="10.00" fill="#000000">/home/finlay/RTEP1</text>
<text text-anchor="start" x="104.5" y="-18.5" font-family="Helvetica,sans-Serif" font-size="10.00" fill="#000000">/Rpi_end/200322_Rpi</text>
<text text-anchor="middle" x="157" y="-7.5" font-family="Helvetica,sans-Serif" font-size="10.00" fill="#000000">_end_together/main.cpp</text>
</a>
</g>
</g>
<!-- Node3&#45;&gt;Node4 -->
<g id="edge3" class="edge">
<title>Node3&#45;&gt;Node4</title>
<path fill="none" stroke="#191970" d="M192.0392,-69.8046C185.3268,-60.4552 178.0373,-50.302 171.8542,-41.6898"/>
<polygon fill="#191970" stroke="#191970" points="189.3178,-72.0154 197.993,-78.0974 195.0041,-67.9329 189.3178,-72.0154"/>
</g>
<!-- Node3&#45;&gt;Node5 -->
<g id="edge4" class="edge">
<title>Node3&#45;&gt;Node5</title>
<path fill="none" stroke="#191970" d="M244.6874,-71.229C255.7938,-61.4953 268.0643,-50.7414 278.3924,-41.6898"/>
<polygon fill="#191970" stroke="#191970" points="242.064,-68.8742 236.8504,-78.0974 246.6778,-74.1386 242.064,-68.8742"/>
</g>
</g>
</svg>
