<?xml version="1.0" encoding="UTF-8" standalone="no"?>
<!DOCTYPE svg PUBLIC "-//W3C//DTD SVG 1.1//EN"
 "http://www.w3.org/Graphics/SVG/1.1/DTD/svg11.dtd">
<!-- Generated by graphviz version 2.40.1 (20161225.0304)
 -->
<!-- Title: /home/finlay/RTEP1/Rpi_end/200322_Rpi_end_together/GPIOlis.cpp Pages: 1 -->
<svg width="635pt" height="218pt"
 viewBox="0.00 0.00 635.00 218.00" xmlns="http://www.w3.org/2000/svg" xmlns:xlink="http://www.w3.org/1999/xlink">
<g id="graph0" class="graph" transform="scale(1 1) rotate(0) translate(4 214)">
<title>/home/finlay/RTEP1/Rpi_end/200322_Rpi_end_together/GPIOlis.cpp</title>
<polygon fill="#ffffff" stroke="transparent" points="-4,4 -4,-214 631,-214 631,4 -4,4"/>
<!-- Node1 -->
<g id="node1" class="node">
<title>Node1</title>
<g id="a_node1"><a xlink:title=" ">
<polygon fill="#bfbfbf" stroke="#000000" points="225.5,-168.5 225.5,-209.5 359.5,-209.5 359.5,-168.5 225.5,-168.5"/>
<text text-anchor="start" x="233.5" y="-197.5" font-family="Helvetica,sans-Serif" font-size="10.00" fill="#000000">/home/finlay/RTEP1</text>
<text text-anchor="start" x="233.5" y="-186.5" font-family="Helvetica,sans-Serif" font-size="10.00" fill="#000000">/Rpi_end/200322_Rpi</text>
<text text-anchor="middle" x="292.5" y="-175.5" font-family="Helvetica,sans-Serif" font-size="10.00" fill="#000000">_end_together/GPIOlis.cpp</text>
</a>
</g>
</g>
<!-- Node2 -->
<g id="node2" class="node">
<title>Node2</title>
<g id="a_node2"><a xlink:title=" ">
<polygon fill="#ffffff" stroke="#bfbfbf" points="0,-112.5 0,-131.5 53,-131.5 53,-112.5 0,-112.5"/>
<text text-anchor="middle" x="26.5" y="-119.5" font-family="Helvetica,sans-Serif" font-size="10.00" fill="#000000">QDebug</text>
</a>
</g>
</g>
<!-- Node1&#45;&gt;Node2 -->
<g id="edge1" class="edge">
<title>Node1&#45;&gt;Node2</title>
<path fill="none" stroke="#191970" d="M225.446,-172.907C181.8332,-162.3179 123.4929,-147.9253 62.9479,-132.0675"/>
<polygon fill="#191970" stroke="#191970" points="63.7749,-128.666 53.2138,-129.5101 61.9962,-135.4363 63.7749,-128.666"/>
</g>
<!-- Node3 -->
<g id="node3" class="node">
<title>Node3</title>
<g id="a_node3"><a xlink:title=" ">
<polygon fill="#ffffff" stroke="#bfbfbf" points="71.5,-112.5 71.5,-131.5 117.5,-131.5 117.5,-112.5 71.5,-112.5"/>
<text text-anchor="middle" x="94.5" y="-119.5" font-family="Helvetica,sans-Serif" font-size="10.00" fill="#000000">stdio.h</text>
</a>
</g>
</g>
<!-- Node1&#45;&gt;Node3 -->
<g id="edge2" class="edge">
<title>Node1&#45;&gt;Node3</title>
<path fill="none" stroke="#191970" d="M231.7479,-168.4425C197.5273,-156.8628 156.102,-142.8451 127.7736,-133.2593"/>
<polygon fill="#191970" stroke="#191970" points="128.5613,-129.8309 117.967,-129.9409 126.3175,-136.4616 128.5613,-129.8309"/>
</g>
<!-- Node4 -->
<g id="node4" class="node">
<title>Node4</title>
<g id="a_node4"><a xlink:title=" ">
<polygon fill="#ffffff" stroke="#bfbfbf" points="136,-112.5 136,-131.5 185,-131.5 185,-112.5 136,-112.5"/>
<text text-anchor="middle" x="160.5" y="-119.5" font-family="Helvetica,sans-Serif" font-size="10.00" fill="#000000">string.h</text>
</a>
</g>
</g>
<!-- Node1&#45;&gt;Node4 -->
<g id="edge3" class="edge">
<title>Node1&#45;&gt;Node4</title>
<path fill="none" stroke="#191970" d="M251.8186,-168.3511C231.3053,-157.9391 206.946,-145.5748 188.5472,-136.2361"/>
<polygon fill="#191970" stroke="#191970" points="190.0223,-133.0598 179.5211,-131.6546 186.854,-139.3018 190.0223,-133.0598"/>
</g>
<!-- Node5 -->
<g id="node5" class="node">
<title>Node5</title>
<g id="a_node5"><a xlink:title=" ">
<polygon fill="#ffffff" stroke="#bfbfbf" points="203,-112.5 203,-131.5 250,-131.5 250,-112.5 203,-112.5"/>
<text text-anchor="middle" x="226.5" y="-119.5" font-family="Helvetica,sans-Serif" font-size="10.00" fill="#000000">errno.h</text>
</a>
</g>
</g>
<!-- Node1&#45;&gt;Node5 -->
<g id="edge4" class="edge">
<title>Node1&#45;&gt;Node5</title>
<path fill="none" stroke="#191970" d="M271.979,-168.168C262.7305,-158.7794 251.9484,-147.834 243.2043,-138.9574"/>
<polygon fill="#191970" stroke="#191970" points="245.6456,-136.4483 236.1345,-131.7805 240.6588,-141.3607 245.6456,-136.4483"/>
</g>
<!-- Node6 -->
<g id="node6" class="node">
<title>Node6</title>
<g id="a_node6"><a xlink:title=" ">
<polygon fill="#ffffff" stroke="#bfbfbf" points="268.5,-112.5 268.5,-131.5 316.5,-131.5 316.5,-112.5 268.5,-112.5"/>
<text text-anchor="middle" x="292.5" y="-119.5" font-family="Helvetica,sans-Serif" font-size="10.00" fill="#000000">stdlib.h</text>
</a>
</g>
</g>
<!-- Node1&#45;&gt;Node6 -->
<g id="edge5" class="edge">
<title>Node1&#45;&gt;Node6</title>
<path fill="none" stroke="#191970" d="M292.5,-168.168C292.5,-159.8226 292.5,-150.2471 292.5,-141.9879"/>
<polygon fill="#191970" stroke="#191970" points="296.0001,-141.7804 292.5,-131.7805 289.0001,-141.7805 296.0001,-141.7804"/>
</g>
<!-- Node7 -->
<g id="node7" class="node">
<title>Node7</title>
<g id="a_node7"><a xlink:title=" ">
<polygon fill="#ffffff" stroke="#bfbfbf" points="335,-112.5 335,-131.5 394,-131.5 394,-112.5 335,-112.5"/>
<text text-anchor="middle" x="364.5" y="-119.5" font-family="Helvetica,sans-Serif" font-size="10.00" fill="#000000">wiringPi.h</text>
</a>
</g>
</g>
<!-- Node1&#45;&gt;Node7 -->
<g id="edge6" class="edge">
<title>Node1&#45;&gt;Node7</title>
<path fill="none" stroke="#191970" d="M314.8866,-168.168C325.0778,-158.6846 336.9759,-147.6127 346.5655,-138.689"/>
<polygon fill="#191970" stroke="#191970" points="349.0532,-141.1551 353.9896,-131.7805 344.2846,-136.0306 349.0532,-141.1551"/>
</g>
<!-- Node8 -->
<g id="node8" class="node">
<title>Node8</title>
<g id="a_node8"><a xlink:title=" ">
<polygon fill="#ffffff" stroke="#bfbfbf" points="426.5,-.5 426.5,-19.5 480.5,-19.5 480.5,-.5 426.5,-.5"/>
<text text-anchor="middle" x="453.5" y="-7.5" font-family="Helvetica,sans-Serif" font-size="10.00" fill="#000000">iostream</text>
</a>
</g>
</g>
<!-- Node1&#45;&gt;Node8 -->
<g id="edge7" class="edge">
<title>Node1&#45;&gt;Node8</title>
<path fill="none" stroke="#191970" d="M350.1628,-168.3816C368.7526,-159.4911 388.2196,-147.5042 402.5,-132 429.8534,-102.3024 443.6938,-55.8278 449.678,-29.645"/>
<polygon fill="#191970" stroke="#191970" points="453.1204,-30.2837 451.7782,-19.7743 446.2737,-28.8269 453.1204,-30.2837"/>
</g>
<!-- Node9 -->
<g id="node9" class="node">
<title>Node9</title>
<g id="a_node9"><a xlink:title=" ">
<polygon fill="#ffffff" stroke="#bfbfbf" points="451,-112.5 451,-131.5 510,-131.5 510,-112.5 451,-112.5"/>
<text text-anchor="middle" x="480.5" y="-119.5" font-family="Helvetica,sans-Serif" font-size="10.00" fill="#000000">functional</text>
</a>
</g>
</g>
<!-- Node1&#45;&gt;Node9 -->
<g id="edge8" class="edge">
<title>Node1&#45;&gt;Node9</title>
<path fill="none" stroke="#191970" d="M350.1838,-168.4425C380.8108,-157.5275 417.5158,-144.4465 444.1552,-134.9527"/>
<polygon fill="#191970" stroke="#191970" points="445.5939,-138.1557 453.8386,-131.5017 443.2439,-131.5619 445.5939,-138.1557"/>
</g>
<!-- Node10 -->
<g id="node10" class="node">
<title>Node10</title>
<g id="a_node10"><a xlink:href="_g_p_i_olis_8h.html" target="_top" xlink:title="Threading and interrupts.">
<polygon fill="#ffffff" stroke="#000000" points="528,-112.5 528,-131.5 587,-131.5 587,-112.5 528,-112.5"/>
<text text-anchor="middle" x="557.5" y="-119.5" font-family="Helvetica,sans-Serif" font-size="10.00" fill="#000000">GPIOlis.h</text>
</a>
</g>
</g>
<!-- Node1&#45;&gt;Node10 -->
<g id="edge9" class="edge">
<title>Node1&#45;&gt;Node10</title>
<path fill="none" stroke="#191970" d="M359.763,-172.1092C402.3452,-161.3989 458.8331,-147.1598 517.8199,-132.1664"/>
<polygon fill="#191970" stroke="#191970" points="518.8637,-135.5124 527.6926,-129.6558 517.1384,-128.7284 518.8637,-135.5124"/>
</g>
<!-- Node11 -->
<g id="node11" class="node">
<title>Node11</title>
<g id="a_node11"><a xlink:href="ads1115_8h.html" target="_top" xlink:title="Defines a set of macros for use in configuring the ADS1115 and a class for controlling the configured...">
<polygon fill="#ffffff" stroke="#000000" points="518.5,-56.5 518.5,-75.5 580.5,-75.5 580.5,-56.5 518.5,-56.5"/>
<text text-anchor="middle" x="549.5" y="-63.5" font-family="Helvetica,sans-Serif" font-size="10.00" fill="#000000">ads1115.h</text>
</a>
</g>
</g>
<!-- Node10&#45;&gt;Node11 -->
<g id="edge10" class="edge">
<title>Node10&#45;&gt;Node11</title>
<path fill="none" stroke="#191970" d="M556.1065,-112.2455C555.0626,-104.9382 553.5992,-94.6944 552.3149,-85.7046"/>
<polygon fill="#191970" stroke="#191970" points="555.7566,-85.0472 550.8775,-75.6427 548.827,-86.0372 555.7566,-85.0472"/>
</g>
<!-- Node11&#45;&gt;Node8 -->
<g id="edge12" class="edge">
<title>Node11&#45;&gt;Node8</title>
<path fill="none" stroke="#191970" d="M532.7781,-56.2455C517.9111,-47.5731 495.9534,-34.7645 478.9142,-24.825"/>
<polygon fill="#191970" stroke="#191970" points="480.4317,-21.6582 470.0303,-19.6427 476.9045,-27.7047 480.4317,-21.6582"/>
</g>
<!-- Node12 -->
<g id="node12" class="node">
<title>Node12</title>
<g id="a_node12"><a xlink:title=" ">
<polygon fill="#ffffff" stroke="#bfbfbf" points="515,-.5 515,-19.5 568,-19.5 568,-.5 515,-.5"/>
<text text-anchor="middle" x="541.5" y="-7.5" font-family="Helvetica,sans-Serif" font-size="10.00" fill="#000000">QObject</text>
</a>
</g>
</g>
<!-- Node11&#45;&gt;Node12 -->
<g id="edge11" class="edge">
<title>Node11&#45;&gt;Node12</title>
<path fill="none" stroke="#191970" d="M548.1065,-56.2455C547.0626,-48.9382 545.5992,-38.6944 544.3149,-29.7046"/>
<polygon fill="#191970" stroke="#191970" points="547.7566,-29.0472 542.8775,-19.6427 540.827,-30.0372 547.7566,-29.0472"/>
</g>
<!-- Node13 -->
<g id="node13" class="node">
<title>Node13</title>
<g id="a_node13"><a xlink:title=" ">
<polygon fill="#ffffff" stroke="#bfbfbf" points="586,-.5 586,-19.5 627,-19.5 627,-.5 586,-.5"/>
<text text-anchor="middle" x="606.5" y="-7.5" font-family="Helvetica,sans-Serif" font-size="10.00" fill="#000000">string</text>
</a>
</g>
</g>
<!-- Node11&#45;&gt;Node13 -->
<g id="edge13" class="edge">
<title>Node11&#45;&gt;Node13</title>
<path fill="none" stroke="#191970" d="M559.4286,-56.2455C567.6838,-48.1352 579.6209,-36.4075 589.4082,-26.7919"/>
<polygon fill="#191970" stroke="#191970" points="592.0046,-29.1476 596.6851,-19.6427 587.0989,-24.1542 592.0046,-29.1476"/>
</g>
</g>
</svg>
