<?xml version="1.0" encoding="UTF-8" standalone="no"?>
<!DOCTYPE svg PUBLIC "-//W3C//DTD SVG 1.1//EN"
 "http://www.w3.org/Graphics/SVG/1.1/DTD/svg11.dtd">
<!-- Generated by graphviz version 2.40.1 (20161225.0304)
 -->
<!-- Title: /home/finlay/RTEP1/Server_end/0301_Pong_GUI/main.cpp Pages: 1 -->
<svg width="463pt" height="162pt"
 viewBox="0.00 0.00 462.50 162.00" xmlns="http://www.w3.org/2000/svg" xmlns:xlink="http://www.w3.org/1999/xlink">
<g id="graph0" class="graph" transform="scale(1 1) rotate(0) translate(4 158)">
<title>/home/finlay/RTEP1/Server_end/0301_Pong_GUI/main.cpp</title>
<polygon fill="#ffffff" stroke="transparent" points="-4,4 -4,-158 458.5,-158 458.5,4 -4,4"/>
<!-- Node1 -->
<g id="node1" class="node">
<title>Node1</title>
<g id="a_node1"><a xlink:title=" ">
<polygon fill="#bfbfbf" stroke="#000000" points="160,-112.5 160,-153.5 281,-153.5 281,-112.5 160,-112.5"/>
<text text-anchor="start" x="168" y="-141.5" font-family="Helvetica,sans-Serif" font-size="10.00" fill="#000000">/home/finlay/RTEP1</text>
<text text-anchor="start" x="168" y="-130.5" font-family="Helvetica,sans-Serif" font-size="10.00" fill="#000000">/Server_end/0301_Pong</text>
<text text-anchor="middle" x="220.5" y="-119.5" font-family="Helvetica,sans-Serif" font-size="10.00" fill="#000000">_GUI/main.cpp</text>
</a>
</g>
</g>
<!-- Node2 -->
<g id="node2" class="node">
<title>Node2</title>
<g id="a_node2"><a xlink:title=" ">
<polygon fill="#ffffff" stroke="#bfbfbf" points="90.5,-56.5 90.5,-75.5 162.5,-75.5 162.5,-56.5 90.5,-56.5"/>
<text text-anchor="middle" x="126.5" y="-63.5" font-family="Helvetica,sans-Serif" font-size="10.00" fill="#000000">QApplication</text>
</a>
</g>
</g>
<!-- Node1&#45;&gt;Node2 -->
<g id="edge1" class="edge">
<title>Node1&#45;&gt;Node2</title>
<path fill="none" stroke="#191970" d="M191.5299,-112.3511C177.5921,-102.4167 161.1608,-90.7051 148.3022,-81.5398"/>
<polygon fill="#191970" stroke="#191970" points="150.22,-78.6087 140.0453,-75.6546 146.157,-84.309 150.22,-78.6087"/>
</g>
<!-- Node3 -->
<g id="node3" class="node">
<title>Node3</title>
<g id="a_node3"><a xlink:href="mainwindow_8h.html" target="_top" xlink:title=" ">
<polygon fill="#ffffff" stroke="#000000" points="181,-56.5 181,-75.5 260,-75.5 260,-56.5 181,-56.5"/>
<text text-anchor="middle" x="220.5" y="-63.5" font-family="Helvetica,sans-Serif" font-size="10.00" fill="#000000">mainwindow.h</text>
</a>
</g>
</g>
<!-- Node1&#45;&gt;Node3 -->
<g id="edge2" class="edge">
<title>Node1&#45;&gt;Node3</title>
<path fill="none" stroke="#191970" d="M220.5,-112.168C220.5,-103.8226 220.5,-94.2471 220.5,-85.9879"/>
<polygon fill="#191970" stroke="#191970" points="224.0001,-85.7804 220.5,-75.7805 217.0001,-85.7805 224.0001,-85.7804"/>
</g>
<!-- Node9 -->
<g id="node9" class="node">
<title>Node9</title>
<g id="a_node9"><a xlink:title=" ">
<polygon fill="#ffffff" stroke="#bfbfbf" points="278,-56.5 278,-75.5 333,-75.5 333,-56.5 278,-56.5"/>
<text text-anchor="middle" x="305.5" y="-63.5" font-family="Helvetica,sans-Serif" font-size="10.00" fill="#000000">QScreen</text>
</a>
</g>
</g>
<!-- Node1&#45;&gt;Node9 -->
<g id="edge8" class="edge">
<title>Node1&#45;&gt;Node9</title>
<path fill="none" stroke="#191970" d="M246.9286,-112.168C259.2005,-102.4949 273.569,-91.1692 285.0033,-82.1562"/>
<polygon fill="#191970" stroke="#191970" points="287.405,-84.7197 293.0919,-75.7805 283.0717,-79.2222 287.405,-84.7197"/>
</g>
<!-- Node4 -->
<g id="node4" class="node">
<title>Node4</title>
<g id="a_node4"><a xlink:title=" ">
<polygon fill="#ffffff" stroke="#bfbfbf" points="0,-.5 0,-19.5 53,-19.5 53,-.5 0,-.5"/>
<text text-anchor="middle" x="26.5" y="-7.5" font-family="Helvetica,sans-Serif" font-size="10.00" fill="#000000">QObject</text>
</a>
</g>
</g>
<!-- Node3&#45;&gt;Node4 -->
<g id="edge3" class="edge">
<title>Node3&#45;&gt;Node4</title>
<path fill="none" stroke="#191970" d="M187.1502,-56.3733C152.6396,-46.4114 98.884,-30.8944 63.1902,-20.591"/>
<polygon fill="#191970" stroke="#191970" points="63.7623,-17.1133 53.1838,-17.7026 61.8209,-23.8387 63.7623,-17.1133"/>
</g>
<!-- Node5 -->
<g id="node5" class="node">
<title>Node5</title>
<g id="a_node5"><a xlink:title=" ">
<polygon fill="#ffffff" stroke="#bfbfbf" points="71,-.5 71,-19.5 162,-19.5 162,-.5 71,-.5"/>
<text text-anchor="middle" x="116.5" y="-7.5" font-family="Helvetica,sans-Serif" font-size="10.00" fill="#000000">QGraphicsScene</text>
</a>
</g>
</g>
<!-- Node3&#45;&gt;Node5 -->
<g id="edge4" class="edge">
<title>Node3&#45;&gt;Node5</title>
<path fill="none" stroke="#191970" d="M202.3846,-56.2455C186.055,-47.4527 161.829,-34.4079 143.2661,-24.4125"/>
<polygon fill="#191970" stroke="#191970" points="144.8719,-21.3021 134.4078,-19.6427 141.5532,-27.4654 144.8719,-21.3021"/>
</g>
<!-- Node6 -->
<g id="node6" class="node">
<title>Node6</title>
<g id="a_node6"><a xlink:title=" ">
<polygon fill="#ffffff" stroke="#bfbfbf" points="180.5,-.5 180.5,-19.5 260.5,-19.5 260.5,-.5 180.5,-.5"/>
<text text-anchor="middle" x="220.5" y="-7.5" font-family="Helvetica,sans-Serif" font-size="10.00" fill="#000000">QMainWindow</text>
</a>
</g>
</g>
<!-- Node3&#45;&gt;Node6 -->
<g id="edge5" class="edge">
<title>Node3&#45;&gt;Node6</title>
<path fill="none" stroke="#191970" d="M220.5,-56.2455C220.5,-48.9382 220.5,-38.6944 220.5,-29.7046"/>
<polygon fill="#191970" stroke="#191970" points="224.0001,-29.6426 220.5,-19.6427 217.0001,-29.6427 224.0001,-29.6426"/>
</g>
<!-- Node7 -->
<g id="node7" class="node">
<title>Node7</title>
<g id="a_node7"><a xlink:title=" ">
<polygon fill="#ffffff" stroke="#bfbfbf" points="279,-.5 279,-19.5 352,-19.5 352,-.5 279,-.5"/>
<text text-anchor="middle" x="315.5" y="-7.5" font-family="Helvetica,sans-Serif" font-size="10.00" fill="#000000">QUdpSocket</text>
</a>
</g>
</g>
<!-- Node3&#45;&gt;Node7 -->
<g id="edge6" class="edge">
<title>Node3&#45;&gt;Node7</title>
<path fill="none" stroke="#191970" d="M237.0477,-56.2455C251.7599,-47.5731 273.4888,-34.7645 290.3505,-24.825"/>
<polygon fill="#191970" stroke="#191970" points="292.3046,-27.736 299.1419,-19.6427 288.7498,-21.7057 292.3046,-27.736"/>
</g>
<!-- Node8 -->
<g id="node8" class="node">
<title>Node8</title>
<g id="a_node8"><a xlink:title=" ">
<polygon fill="#ffffff" stroke="#bfbfbf" points="370.5,-.5 370.5,-19.5 454.5,-19.5 454.5,-.5 370.5,-.5"/>
<text text-anchor="middle" x="412.5" y="-7.5" font-family="Helvetica,sans-Serif" font-size="10.00" fill="#000000">QElapsedTimer</text>
</a>
</g>
</g>
<!-- Node3&#45;&gt;Node8 -->
<g id="edge7" class="edge">
<title>Node3&#45;&gt;Node8</title>
<path fill="none" stroke="#191970" d="M253.506,-56.3733C285.7091,-46.9807 334.8442,-32.6496 369.9639,-22.4064"/>
<polygon fill="#191970" stroke="#191970" points="371.3047,-25.6612 379.9247,-19.5011 369.3447,-18.9412 371.3047,-25.6612"/>
</g>
</g>
</svg>
