<?xml version="1.0" encoding="UTF-8" standalone="no"?>
<!DOCTYPE svg PUBLIC "-//W3C//DTD SVG 1.1//EN"
 "http://www.w3.org/Graphics/SVG/1.1/DTD/svg11.dtd">
<!-- Generated by graphviz version 2.40.1 (20161225.0304)
 -->
<!-- Title: /home/finlay/RTEP1/Rpi_end/200322_Rpi_end_together/ads1115.cpp Pages: 1 -->
<!--zoomable 162 -->
<svg id="main" version="1.1" xmlns="http://www.w3.org/2000/svg" xmlns:xlink="http://www.w3.org/1999/xlink" xml:space="preserve" onload="init(evt)">
<style type="text/css"><![CDATA[
.edge:hover path { stroke: red; }
.edge:hover polygon { stroke: red; fill: red; }
]]></style>
<script type="text/javascript"><![CDATA[
var edges = document.getElementsByTagName('g');
if (edges && edges.length) {
  for (var i=0;i<edges.length;i++) {
    if (edges[i].id.substr(0,4)=='edge') {
      edges[i].setAttribute('class','edge');
    }
  }
}
]]></script>
        <defs>
                <circle id="rim" cx="0" cy="0" r="7"/>
                <circle id="rim2" cx="0" cy="0" r="3.5"/>
                <g id="zoomPlus">
                        <use xlink:href="#rim" fill="#404040">
                                <set attributeName="fill" to="#808080" begin="zoomplus.mouseover" end="zoomplus.mouseout"/>
                        </use>
                        <path d="M-4,0h8M0,-4v8" fill="none" stroke="white" stroke-width="1.5" pointer-events="none"/>
                </g>
                <g id="zoomMin">
                        <use xlink:href="#rim" fill="#404040">
                                <set attributeName="fill" to="#808080" begin="zoomminus.mouseover" end="zoomminus.mouseout"/>
                        </use>
                        <path d="M-4,0h8" fill="none" stroke="white" stroke-width="1.5" pointer-events="none"/>
                </g>
                <g id="dirArrow">
                        <path fill="none" stroke="white" stroke-width="1.5" d="M0,-3.0v7 M-2.5,-0.5L0,-3.0L2.5,-0.5"/>
                </g>
               <g id="resetDef">
                       <use xlink:href="#rim2" fill="#404040">
                               <set attributeName="fill" to="#808080" begin="reset.mouseover" end="reset.mouseout"/>
                       </use>
               </g>
        </defs>

<script type="text/javascript">
var viewWidth = 558;
var viewHeight = 162;
var sectionId = 'dynsection-0';
</script>
<script xlink:href="svgpan.js"/>
<svg id="graph" class="graph">
<g id="viewport">
<title>/home/finlay/RTEP1/Rpi_end/200322_Rpi_end_together/ads1115.cpp</title>
<polygon fill="#ffffff" stroke="transparent" points="-4,4 -4,-158 554,-158 554,4 -4,4"/>
<!-- Node1 -->
<g id="node1" class="node">
<title>Node1</title>
<g id="a_node1"><a xlink:title="Sets the ADS1115 to the correct configurations and operates accordingly.">
<polygon fill="#bfbfbf" stroke="#000000" points="186,-112.5 186,-153.5 323,-153.5 323,-112.5 186,-112.5"/>
<text text-anchor="start" x="194" y="-141.5" font-family="Helvetica,sans-Serif" font-size="10.00" fill="#000000">/home/finlay/RTEP1</text>
<text text-anchor="start" x="194" y="-130.5" font-family="Helvetica,sans-Serif" font-size="10.00" fill="#000000">/Rpi_end/200322_Rpi</text>
<text text-anchor="middle" x="254.5" y="-119.5" font-family="Helvetica,sans-Serif" font-size="10.00" fill="#000000">_end_together/ads1115.cpp</text>
</a>
</g>
</g>
<!-- Node2 -->
<g id="node2" class="node">
<title>Node2</title>
<g id="a_node2"><a xlink:title=" ">
<polygon fill="#ffffff" stroke="#bfbfbf" points="0,-56.5 0,-75.5 59,-75.5 59,-56.5 0,-56.5"/>
<text text-anchor="middle" x="29.5" y="-63.5" font-family="Helvetica,sans-Serif" font-size="10.00" fill="#000000">wiringPi.h</text>
</a>
</g>
</g>
<!-- Node1&#45;&gt;Node2 -->
<g id="edge1" class="edge">
<title>Node1&#45;&gt;Node2</title>
<path fill="none" stroke="#191970" d="M185.77,-112.5337C147.5204,-101.1439 101.2734,-87.3725 69.0564,-77.779"/>
<polygon fill="#191970" stroke="#191970" points="69.7002,-74.3189 59.1172,-74.8194 67.7024,-81.0278 69.7002,-74.3189"/>
</g>
<!-- Node3 -->
<g id="node3" class="node">
<title>Node3</title>
<g id="a_node3"><a xlink:title=" ">
<polygon fill="#ffffff" stroke="#bfbfbf" points="77,-56.5 77,-75.5 152,-75.5 152,-56.5 77,-56.5"/>
<text text-anchor="middle" x="114.5" y="-63.5" font-family="Helvetica,sans-Serif" font-size="10.00" fill="#000000">wiringPiI2C.h</text>
</a>
</g>
</g>
<!-- Node1&#45;&gt;Node3 -->
<g id="edge2" class="edge">
<title>Node1&#45;&gt;Node3</title>
<path fill="none" stroke="#191970" d="M211.353,-112.3511C189.3969,-101.8435 163.2865,-89.3478 143.7115,-79.9798"/>
<polygon fill="#191970" stroke="#191970" points="145.205,-76.8144 134.6739,-75.6546 142.1832,-83.1286 145.205,-76.8144"/>
</g>
<!-- Node4 -->
<g id="node4" class="node">
<title>Node4</title>
<g id="a_node4"><a xlink:title=" ">
<polygon fill="#ffffff" stroke="#bfbfbf" points="169.5,-56.5 169.5,-75.5 253.5,-75.5 253.5,-56.5 169.5,-56.5"/>
<text text-anchor="middle" x="211.5" y="-63.5" font-family="Helvetica,sans-Serif" font-size="10.00" fill="#000000">QElapsedTimer</text>
</a>
</g>
</g>
<!-- Node1&#45;&gt;Node4 -->
<g id="edge3" class="edge">
<title>Node1&#45;&gt;Node4</title>
<path fill="none" stroke="#191970" d="M241.1302,-112.168C235.409,-103.2536 228.787,-92.9356 223.2561,-84.3177"/>
<polygon fill="#191970" stroke="#191970" points="226.1238,-82.3059 217.777,-75.7805 220.2327,-86.0868 226.1238,-82.3059"/>
</g>
<!-- Node5 -->
<g id="node5" class="node">
<title>Node5</title>
<g id="a_node5"><a xlink:title=" ">
<polygon fill="#ffffff" stroke="#bfbfbf" points="271,-56.5 271,-75.5 324,-75.5 324,-56.5 271,-56.5"/>
<text text-anchor="middle" x="297.5" y="-63.5" font-family="Helvetica,sans-Serif" font-size="10.00" fill="#000000">QDebug</text>
</a>
</g>
</g>
<!-- Node1&#45;&gt;Node5 -->
<g id="edge4" class="edge">
<title>Node1&#45;&gt;Node5</title>
<path fill="none" stroke="#191970" d="M267.8698,-112.168C273.591,-103.2536 280.213,-92.9356 285.7439,-84.3177"/>
<polygon fill="#191970" stroke="#191970" points="288.7673,-86.0868 291.223,-75.7805 282.8762,-82.3059 288.7673,-86.0868"/>
</g>
<!-- Node6 -->
<g id="node6" class="node">
<title>Node6</title>
<g id="a_node6"><a xlink:title=" ">
<polygon fill="#ffffff" stroke="#bfbfbf" points="342.5,-56.5 342.5,-75.5 414.5,-75.5 414.5,-56.5 342.5,-56.5"/>
<text text-anchor="middle" x="378.5" y="-63.5" font-family="Helvetica,sans-Serif" font-size="10.00" fill="#000000">QApplication</text>
</a>
</g>
</g>
<!-- Node1&#45;&gt;Node6 -->
<g id="edge5" class="edge">
<title>Node1&#45;&gt;Node6</title>
<path fill="none" stroke="#191970" d="M292.7159,-112.3511C311.8091,-102.0346 334.4494,-89.8015 351.6755,-80.4939"/>
<polygon fill="#191970" stroke="#191970" points="353.4976,-83.4876 360.6317,-75.6546 350.17,-77.3291 353.4976,-83.4876"/>
</g>
<!-- Node7 -->
<g id="node7" class="node">
<title>Node7</title>
<g id="a_node7"><a xlink:href="ads1115_8h.html" target="_top" xlink:title="Defines a set of macros for use in configuring the ADS1115 and a class for controlling the configured...">
<polygon fill="#ffffff" stroke="#000000" points="432.5,-56.5 432.5,-75.5 494.5,-75.5 494.5,-56.5 432.5,-56.5"/>
<text text-anchor="middle" x="463.5" y="-63.5" font-family="Helvetica,sans-Serif" font-size="10.00" fill="#000000">ads1115.h</text>
</a>
</g>
</g>
<!-- Node1&#45;&gt;Node7 -->
<g id="edge6" class="edge">
<title>Node1&#45;&gt;Node7</title>
<path fill="none" stroke="#191970" d="M318.6272,-112.4425C353.1253,-101.3833 394.56,-88.1004 424.2637,-78.5781"/>
<polygon fill="#191970" stroke="#191970" points="425.4062,-81.8874 433.8604,-75.5017 423.2693,-75.2215 425.4062,-81.8874"/>
</g>
<!-- Node8 -->
<g id="node8" class="node">
<title>Node8</title>
<g id="a_node8"><a xlink:title=" ">
<polygon fill="#ffffff" stroke="#bfbfbf" points="365,-.5 365,-19.5 418,-19.5 418,-.5 365,-.5"/>
<text text-anchor="middle" x="391.5" y="-7.5" font-family="Helvetica,sans-Serif" font-size="10.00" fill="#000000">QObject</text>
</a>
</g>
</g>
<!-- Node7&#45;&gt;Node8 -->
<g id="edge7" class="edge">
<title>Node7&#45;&gt;Node8</title>
<path fill="none" stroke="#191970" d="M450.9586,-56.2455C440.2213,-47.8943 424.5527,-35.7076 411.9953,-25.9408"/>
<polygon fill="#191970" stroke="#191970" points="413.9401,-23.0194 403.8977,-19.6427 409.6425,-28.5449 413.9401,-23.0194"/>
</g>
<!-- Node9 -->
<g id="node9" class="node">
<title>Node9</title>
<g id="a_node9"><a xlink:title=" ">
<polygon fill="#ffffff" stroke="#bfbfbf" points="436.5,-.5 436.5,-19.5 490.5,-19.5 490.5,-.5 436.5,-.5"/>
<text text-anchor="middle" x="463.5" y="-7.5" font-family="Helvetica,sans-Serif" font-size="10.00" fill="#000000">iostream</text>
</a>
</g>
</g>
<!-- Node7&#45;&gt;Node9 -->
<g id="edge8" class="edge">
<title>Node7&#45;&gt;Node9</title>
<path fill="none" stroke="#191970" d="M463.5,-56.2455C463.5,-48.9382 463.5,-38.6944 463.5,-29.7046"/>
<polygon fill="#191970" stroke="#191970" points="467.0001,-29.6426 463.5,-19.6427 460.0001,-29.6427 467.0001,-29.6426"/>
</g>
<!-- Node10 -->
<g id="node10" class="node">
<title>Node10</title>
<g id="a_node10"><a xlink:title=" ">
<polygon fill="#ffffff" stroke="#bfbfbf" points="509,-.5 509,-19.5 550,-19.5 550,-.5 509,-.5"/>
<text text-anchor="middle" x="529.5" y="-7.5" font-family="Helvetica,sans-Serif" font-size="10.00" fill="#000000">string</text>
</a>
</g>
</g>
<!-- Node7&#45;&gt;Node10 -->
<g id="edge9" class="edge">
<title>Node7&#45;&gt;Node10</title>
<path fill="none" stroke="#191970" d="M474.9963,-56.2455C484.7442,-47.9746 498.9259,-35.9416 510.3798,-26.2232"/>
<polygon fill="#191970" stroke="#191970" points="512.7747,-28.7813 518.1354,-19.6427 508.2459,-23.4437 512.7747,-28.7813"/>
</g>
</g>
</svg>
        <g id="navigator" transform="translate(0 0)" fill="#404254">
                <rect fill="#f2f5e9" fill-opacity="0.5" stroke="#606060" stroke-width=".5" x="0" y="0" width="60" height="60"/>
                <use id="zoomplus" xlink:href="#zoomPlus" x="17" y="9" onmousedown="handleZoom(evt,'in')"/>
                <use id="zoomminus" xlink:href="#zoomMin" x="42" y="9" onmousedown="handleZoom(evt,'out')"/>
                <use id="reset" xlink:href="#resetDef" x="30" y="36" onmousedown="handleReset()"/>
                <g id="arrowUp" xlink:href="#dirArrow" transform="translate(30 24)" onmousedown="handlePan(0,-1)">
                  <use xlink:href="#rim" fill="#404040">
                        <set attributeName="fill" to="#808080" begin="arrowUp.mouseover" end="arrowUp.mouseout"/>
                  </use>
                  <path fill="none" stroke="white" stroke-width="1.5" d="M0,-3.0v7 M-2.5,-0.5L0,-3.0L2.5,-0.5"/>
                </g>
                <g id="arrowRight" xlink:href="#dirArrow" transform="rotate(90) translate(36 -43)" onmousedown="handlePan(1,0)">
                  <use xlink:href="#rim" fill="#404040">
                        <set attributeName="fill" to="#808080" begin="arrowRight.mouseover" end="arrowRight.mouseout"/>
                  </use>
                  <path fill="none" stroke="white" stroke-width="1.5" d="M0,-3.0v7 M-2.5,-0.5L0,-3.0L2.5,-0.5"/>
                </g>
                <g id="arrowDown" xlink:href="#dirArrow" transform="rotate(180) translate(-30 -48)" onmousedown="handlePan(0,1)">
                  <use xlink:href="#rim" fill="#404040">
                        <set attributeName="fill" to="#808080" begin="arrowDown.mouseover" end="arrowDown.mouseout"/>
                  </use>
                  <path fill="none" stroke="white" stroke-width="1.5" d="M0,-3.0v7 M-2.5,-0.5L0,-3.0L2.5,-0.5"/>
                </g>
                <g id="arrowLeft" xlink:href="#dirArrow" transform="rotate(270) translate(-36 17)" onmousedown="handlePan(-1,0)">
                  <use xlink:href="#rim" fill="#404040">
                        <set attributeName="fill" to="#808080" begin="arrowLeft.mouseover" end="arrowLeft.mouseout"/>
                  </use>
                  <path fill="none" stroke="white" stroke-width="1.5" d="M0,-3.0v7 M-2.5,-0.5L0,-3.0L2.5,-0.5"/>
                </g>
        </g>
        <svg viewBox="0 0 15 15" width="100%" height="30px" preserveAspectRatio="xMaxYMin meet">
         <g id="arrow_out" transform="scale(0.3 0.3)">
          <a xlink:href="ads1115_8cpp__incl_org.svg" target="_base">
           <rect id="button" ry="5" rx="5" y="6" x="6" height="38" width="38"
                fill="#f2f5e9" fill-opacity="0.5" stroke="#606060" stroke-width="1.0"/>
           <path id="arrow"
             d="M 11.500037,31.436501 C 11.940474,20.09759 22.043105,11.32322 32.158766,21.979434 L 37.068811,17.246167 C 37.068811,17.246167 37.088388,32 37.088388,32 L 22.160133,31.978069 C 22.160133,31.978069 26.997745,27.140456 26.997745,27.140456 C 18.528582,18.264221 13.291696,25.230495 11.500037,31.436501 z"
             style="fill:#404040;"/>
          </a>
         </g>
        </svg>
</svg>
