<?xml version="1.0" encoding="UTF-8" standalone="no"?>
<!DOCTYPE svg PUBLIC "-//W3C//DTD SVG 1.1//EN"
 "http://www.w3.org/Graphics/SVG/1.1/DTD/svg11.dtd">
<!-- Generated by graphviz version 2.40.1 (20161225.0304)
 -->
<!-- Title: /home/finlay/RTEP1/Rpi_end/200322_Rpi_end_together/ads1115.h Pages: 1 -->
<svg width="425pt" height="284pt"
 viewBox="0.00 0.00 425.00 284.00" xmlns="http://www.w3.org/2000/svg" xmlns:xlink="http://www.w3.org/1999/xlink">
<g id="graph0" class="graph" transform="scale(1 1) rotate(0) translate(4 280)">
<title>/home/finlay/RTEP1/Rpi_end/200322_Rpi_end_together/ads1115.h</title>
<polygon fill="#ffffff" stroke="transparent" points="-4,4 -4,-280 421,-280 421,4 -4,4"/>
<!-- Node1 -->
<g id="node1" class="node">
<title>Node1</title>
<g id="a_node1"><a xlink:title="Defines a set of macros for use in configuring the ADS1115 and a class for controlling the configured...">
<polygon fill="#bfbfbf" stroke="#000000" points="147.5,-234.5 147.5,-275.5 273.5,-275.5 273.5,-234.5 147.5,-234.5"/>
<text text-anchor="start" x="155.5" y="-263.5" font-family="Helvetica,sans-Serif" font-size="10.00" fill="#000000">/home/finlay/RTEP1</text>
<text text-anchor="start" x="155.5" y="-252.5" font-family="Helvetica,sans-Serif" font-size="10.00" fill="#000000">/Rpi_end/200322_Rpi</text>
<text text-anchor="middle" x="210.5" y="-241.5" font-family="Helvetica,sans-Serif" font-size="10.00" fill="#000000">_end_together/ads1115.h</text>
</a>
</g>
</g>
<!-- Node2 -->
<g id="node2" class="node">
<title>Node2</title>
<g id="a_node2"><a xlink:href="ads1115_8cpp.html" target="_top" xlink:title="Sets the ADS1115 to the correct configurations and operates accordingly.">
<polygon fill="#ffffff" stroke="#000000" points="0,-156.5 0,-197.5 137,-197.5 137,-156.5 0,-156.5"/>
<text text-anchor="start" x="8" y="-185.5" font-family="Helvetica,sans-Serif" font-size="10.00" fill="#000000">/home/finlay/RTEP1</text>
<text text-anchor="start" x="8" y="-174.5" font-family="Helvetica,sans-Serif" font-size="10.00" fill="#000000">/Rpi_end/200322_Rpi</text>
<text text-anchor="middle" x="68.5" y="-163.5" font-family="Helvetica,sans-Serif" font-size="10.00" fill="#000000">_end_together/ads1115.cpp</text>
</a>
</g>
</g>
<!-- Node1&#45;&gt;Node2 -->
<g id="edge1" class="edge">
<title>Node1&#45;&gt;Node2</title>
<path fill="none" stroke="#191970" d="M163.8216,-229.3597C145.0131,-219.0283 123.6146,-207.2742 105.8639,-197.5239"/>
<polygon fill="#191970" stroke="#191970" points="162.3696,-232.5554 172.8194,-234.3022 165.7397,-226.42 162.3696,-232.5554"/>
</g>
<!-- Node3 -->
<g id="node3" class="node">
<title>Node3</title>
<g id="a_node3"><a xlink:href="_g_p_i_olis_8h.html" target="_top" xlink:title="Threading and interrupts.">
<polygon fill="#ffffff" stroke="#000000" points="193.5,-156.5 193.5,-197.5 317.5,-197.5 317.5,-156.5 193.5,-156.5"/>
<text text-anchor="start" x="201.5" y="-185.5" font-family="Helvetica,sans-Serif" font-size="10.00" fill="#000000">/home/finlay/RTEP1</text>
<text text-anchor="start" x="201.5" y="-174.5" font-family="Helvetica,sans-Serif" font-size="10.00" fill="#000000">/Rpi_end/200322_Rpi</text>
<text text-anchor="middle" x="255.5" y="-163.5" font-family="Helvetica,sans-Serif" font-size="10.00" fill="#000000">_end_together/GPIOlis.h</text>
</a>
</g>
</g>
<!-- Node1&#45;&gt;Node3 -->
<g id="edge2" class="edge">
<title>Node1&#45;&gt;Node3</title>
<path fill="none" stroke="#191970" d="M227.6743,-225.2312C232.9761,-216.0415 238.6964,-206.1263 243.5636,-197.6898"/>
<polygon fill="#191970" stroke="#191970" points="224.5248,-223.6865 222.5592,-234.0974 230.5881,-227.1846 224.5248,-223.6865"/>
</g>
<!-- Node5 -->
<g id="node5" class="node">
<title>Node5</title>
<g id="a_node5"><a xlink:href="window_8h.html" target="_top" xlink:title=" ">
<polygon fill="#ffffff" stroke="#000000" points="48.5,-78.5 48.5,-119.5 170.5,-119.5 170.5,-78.5 48.5,-78.5"/>
<text text-anchor="start" x="56.5" y="-107.5" font-family="Helvetica,sans-Serif" font-size="10.00" fill="#000000">/home/finlay/RTEP1</text>
<text text-anchor="start" x="56.5" y="-96.5" font-family="Helvetica,sans-Serif" font-size="10.00" fill="#000000">/Rpi_end/200322_Rpi</text>
<text text-anchor="middle" x="109.5" y="-85.5" font-family="Helvetica,sans-Serif" font-size="10.00" fill="#000000">_end_together/window.h</text>
</a>
</g>
</g>
<!-- Node1&#45;&gt;Node5 -->
<g id="edge8" class="edge">
<title>Node1&#45;&gt;Node5</title>
<path fill="none" stroke="#191970" d="M191.5139,-225.6749C171.5296,-194.8082 140.5776,-147.0011 122.9675,-119.8013"/>
<polygon fill="#191970" stroke="#191970" points="188.7152,-227.7923 197.088,-234.2844 194.5912,-223.988 188.7152,-227.7923"/>
</g>
<!-- Node7 -->
<g id="node7" class="node">
<title>Node7</title>
<g id="a_node7"><a xlink:href="window_8cpp.html" target="_top" xlink:title=" ">
<polygon fill="#ffffff" stroke="#000000" points="284,-.5 284,-41.5 417,-41.5 417,-.5 284,-.5"/>
<text text-anchor="start" x="292" y="-29.5" font-family="Helvetica,sans-Serif" font-size="10.00" fill="#000000">/home/finlay/RTEP1</text>
<text text-anchor="start" x="292" y="-18.5" font-family="Helvetica,sans-Serif" font-size="10.00" fill="#000000">/Rpi_end/200322_Rpi</text>
<text text-anchor="middle" x="350.5" y="-7.5" font-family="Helvetica,sans-Serif" font-size="10.00" fill="#000000">_end_together/window.cpp</text>
</a>
</g>
</g>
<!-- Node1&#45;&gt;Node7 -->
<g id="edge9" class="edge">
<title>Node1&#45;&gt;Node7</title>
<path fill="none" stroke="#191970" d="M283.2051,-230.2105C299.1659,-222.001 314.7781,-211.4214 326.5,-198 365.1561,-153.7395 359.7338,-78.0187 354.3083,-41.666"/>
<polygon fill="#191970" stroke="#191970" points="281.265,-227.2613 273.7941,-234.7737 284.3191,-233.56 281.265,-227.2613"/>
</g>
<!-- Node4 -->
<g id="node4" class="node">
<title>Node4</title>
<g id="a_node4"><a xlink:href="_g_p_i_olis_8cpp.html" target="_top" xlink:title=" ">
<polygon fill="#ffffff" stroke="#000000" points="188.5,-78.5 188.5,-119.5 322.5,-119.5 322.5,-78.5 188.5,-78.5"/>
<text text-anchor="start" x="196.5" y="-107.5" font-family="Helvetica,sans-Serif" font-size="10.00" fill="#000000">/home/finlay/RTEP1</text>
<text text-anchor="start" x="196.5" y="-96.5" font-family="Helvetica,sans-Serif" font-size="10.00" fill="#000000">/Rpi_end/200322_Rpi</text>
<text text-anchor="middle" x="255.5" y="-85.5" font-family="Helvetica,sans-Serif" font-size="10.00" fill="#000000">_end_together/GPIOlis.cpp</text>
</a>
</g>
</g>
<!-- Node3&#45;&gt;Node4 -->
<g id="edge3" class="edge">
<title>Node3&#45;&gt;Node4</title>
<path fill="none" stroke="#191970" d="M255.5,-146.0789C255.5,-137.2178 255.5,-127.7747 255.5,-119.6898"/>
<polygon fill="#191970" stroke="#191970" points="252.0001,-146.0974 255.5,-156.0974 259.0001,-146.0975 252.0001,-146.0974"/>
</g>
<!-- Node3&#45;&gt;Node5 -->
<g id="edge4" class="edge">
<title>Node3&#45;&gt;Node5</title>
<path fill="none" stroke="#191970" d="M207.7702,-151.5005C188.3685,-141.1352 166.2501,-129.3185 147.9164,-119.5239"/>
<polygon fill="#191970" stroke="#191970" points="206.2885,-154.6771 216.758,-156.3022 209.5871,-148.5029 206.2885,-154.6771"/>
</g>
<!-- Node3&#45;&gt;Node7 -->
<g id="edge7" class="edge">
<title>Node3&#45;&gt;Node7</title>
<path fill="none" stroke="#191970" d="M301.8674,-150.6814C313.1215,-142.239 324.0457,-131.9308 331.5,-120 346.523,-95.9555 350.1411,-62.6976 350.7726,-41.5157"/>
<polygon fill="#191970" stroke="#191970" points="299.7963,-147.8593 293.6592,-156.4956 303.8425,-153.5715 299.7963,-147.8593"/>
</g>
<!-- Node6 -->
<g id="node6" class="node">
<title>Node6</title>
<g id="a_node6"><a xlink:href="_rpi__end_2200322___rpi__end__together_2main_8cpp.html" target="_top" xlink:title=" ">
<polygon fill="#ffffff" stroke="#000000" points="49,-.5 49,-41.5 170,-41.5 170,-.5 49,-.5"/>
<text text-anchor="start" x="57" y="-29.5" font-family="Helvetica,sans-Serif" font-size="10.00" fill="#000000">/home/finlay/RTEP1</text>
<text text-anchor="start" x="57" y="-18.5" font-family="Helvetica,sans-Serif" font-size="10.00" fill="#000000">/Rpi_end/200322_Rpi</text>
<text text-anchor="middle" x="109.5" y="-7.5" font-family="Helvetica,sans-Serif" font-size="10.00" fill="#000000">_end_together/main.cpp</text>
</a>
</g>
</g>
<!-- Node5&#45;&gt;Node6 -->
<g id="edge5" class="edge">
<title>Node5&#45;&gt;Node6</title>
<path fill="none" stroke="#191970" d="M109.5,-68.0789C109.5,-59.2178 109.5,-49.7747 109.5,-41.6898"/>
<polygon fill="#191970" stroke="#191970" points="106.0001,-68.0974 109.5,-78.0974 113.0001,-68.0975 106.0001,-68.0974"/>
</g>
<!-- Node5&#45;&gt;Node7 -->
<g id="edge6" class="edge">
<title>Node5&#45;&gt;Node7</title>
<path fill="none" stroke="#191970" d="M180.4202,-76.0466C214.1573,-65.1275 254.1746,-52.1759 286.9147,-41.5795"/>
<polygon fill="#191970" stroke="#191970" points="179.0624,-72.8072 170.626,-79.2165 181.2179,-79.4671 179.0624,-72.8072"/>
</g>
</g>
</svg>
