<?xml version="1.0" encoding="UTF-8" standalone="no"?>
<!DOCTYPE svg PUBLIC "-//W3C//DTD SVG 1.1//EN"
 "http://www.w3.org/Graphics/SVG/1.1/DTD/svg11.dtd">
<!-- Generated by graphviz version 2.40.1 (20161225.0304)
 -->
<!-- Title: /home/finlay/RTEP1/Rpi_end/200322_Rpi_end_together/ads1115.cpp Pages: 1 -->
<svg width="558pt" height="162pt"
 viewBox="0.00 0.00 558.00 162.00" xmlns="http://www.w3.org/2000/svg" xmlns:xlink="http://www.w3.org/1999/xlink">
<g id="graph0" class="graph" transform="scale(1 1) rotate(0) translate(4 158)">
<title>/home/finlay/RTEP1/Rpi_end/200322_Rpi_end_together/ads1115.cpp</title>
<polygon fill="#ffffff" stroke="transparent" points="-4,4 -4,-158 554,-158 554,4 -4,4"/>
<!-- Node1 -->
<g id="node1" class="node">
<title>Node1</title>
<g id="a_node1"><a xlink:title="Sets the ADS1115 to the correct configurations and operates accordingly.">
<polygon fill="#bfbfbf" stroke="#000000" points="186,-112.5 186,-153.5 323,-153.5 323,-112.5 186,-112.5"/>
<text text-anchor="start" x="194" y="-141.5" font-family="Helvetica,sans-Serif" font-size="10.00" fill="#000000">/home/finlay/RTEP1</text>
<text text-anchor="start" x="194" y="-130.5" font-family="Helvetica,sans-Serif" font-size="10.00" fill="#000000">/Rpi_end/200322_Rpi</text>
<text text-anchor="middle" x="254.5" y="-119.5" font-family="Helvetica,sans-Serif" font-size="10.00" fill="#000000">_end_together/ads1115.cpp</text>
</a>
</g>
</g>
<!-- Node2 -->
<g id="node2" class="node">
<title>Node2</title>
<g id="a_node2"><a xlink:title=" ">
<polygon fill="#ffffff" stroke="#bfbfbf" points="0,-56.5 0,-75.5 59,-75.5 59,-56.5 0,-56.5"/>
<text text-anchor="middle" x="29.5" y="-63.5" font-family="Helvetica,sans-Serif" font-size="10.00" fill="#000000">wiringPi.h</text>
</a>
</g>
</g>
<!-- Node1&#45;&gt;Node2 -->
<g id="edge1" class="edge">
<title>Node1&#45;&gt;Node2</title>
<path fill="none" stroke="#191970" d="M185.77,-112.5337C147.5204,-101.1439 101.2734,-87.3725 69.0564,-77.779"/>
<polygon fill="#191970" stroke="#191970" points="69.7002,-74.3189 59.1172,-74.8194 67.7024,-81.0278 69.7002,-74.3189"/>
</g>
<!-- Node3 -->
<g id="node3" class="node">
<title>Node3</title>
<g id="a_node3"><a xlink:title=" ">
<polygon fill="#ffffff" stroke="#bfbfbf" points="77,-56.5 77,-75.5 152,-75.5 152,-56.5 77,-56.5"/>
<text text-anchor="middle" x="114.5" y="-63.5" font-family="Helvetica,sans-Serif" font-size="10.00" fill="#000000">wiringPiI2C.h</text>
</a>
</g>
</g>
<!-- Node1&#45;&gt;Node3 -->
<g id="edge2" class="edge">
<title>Node1&#45;&gt;Node3</title>
<path fill="none" stroke="#191970" d="M211.353,-112.3511C189.3969,-101.8435 163.2865,-89.3478 143.7115,-79.9798"/>
<polygon fill="#191970" stroke="#191970" points="145.205,-76.8144 134.6739,-75.6546 142.1832,-83.1286 145.205,-76.8144"/>
</g>
<!-- Node4 -->
<g id="node4" class="node">
<title>Node4</title>
<g id="a_node4"><a xlink:title=" ">
<polygon fill="#ffffff" stroke="#bfbfbf" points="169.5,-56.5 169.5,-75.5 253.5,-75.5 253.5,-56.5 169.5,-56.5"/>
<text text-anchor="middle" x="211.5" y="-63.5" font-family="Helvetica,sans-Serif" font-size="10.00" fill="#000000">QElapsedTimer</text>
</a>
</g>
</g>
<!-- Node1&#45;&gt;Node4 -->
<g id="edge3" class="edge">
<title>Node1&#45;&gt;Node4</title>
<path fill="none" stroke="#191970" d="M241.1302,-112.168C235.409,-103.2536 228.787,-92.9356 223.2561,-84.3177"/>
<polygon fill="#191970" stroke="#191970" points="226.1238,-82.3059 217.777,-75.7805 220.2327,-86.0868 226.1238,-82.3059"/>
</g>
<!-- Node5 -->
<g id="node5" class="node">
<title>Node5</title>
<g id="a_node5"><a xlink:title=" ">
<polygon fill="#ffffff" stroke="#bfbfbf" points="271,-56.5 271,-75.5 324,-75.5 324,-56.5 271,-56.5"/>
<text text-anchor="middle" x="297.5" y="-63.5" font-family="Helvetica,sans-Serif" font-size="10.00" fill="#000000">QDebug</text>
</a>
</g>
</g>
<!-- Node1&#45;&gt;Node5 -->
<g id="edge4" class="edge">
<title>Node1&#45;&gt;Node5</title>
<path fill="none" stroke="#191970" d="M267.8698,-112.168C273.591,-103.2536 280.213,-92.9356 285.7439,-84.3177"/>
<polygon fill="#191970" stroke="#191970" points="288.7673,-86.0868 291.223,-75.7805 282.8762,-82.3059 288.7673,-86.0868"/>
</g>
<!-- Node6 -->
<g id="node6" class="node">
<title>Node6</title>
<g id="a_node6"><a xlink:title=" ">
<polygon fill="#ffffff" stroke="#bfbfbf" points="342.5,-56.5 342.5,-75.5 414.5,-75.5 414.5,-56.5 342.5,-56.5"/>
<text text-anchor="middle" x="378.5" y="-63.5" font-family="Helvetica,sans-Serif" font-size="10.00" fill="#000000">QApplication</text>
</a>
</g>
</g>
<!-- Node1&#45;&gt;Node6 -->
<g id="edge5" class="edge">
<title>Node1&#45;&gt;Node6</title>
<path fill="none" stroke="#191970" d="M292.7159,-112.3511C311.8091,-102.0346 334.4494,-89.8015 351.6755,-80.4939"/>
<polygon fill="#191970" stroke="#191970" points="353.4976,-83.4876 360.6317,-75.6546 350.17,-77.3291 353.4976,-83.4876"/>
</g>
<!-- Node7 -->
<g id="node7" class="node">
<title>Node7</title>
<g id="a_node7"><a xlink:href="ads1115_8h.html" target="_top" xlink:title="Defines a set of macros for use in configuring the ADS1115 and a class for controlling the configured...">
<polygon fill="#ffffff" stroke="#000000" points="432.5,-56.5 432.5,-75.5 494.5,-75.5 494.5,-56.5 432.5,-56.5"/>
<text text-anchor="middle" x="463.5" y="-63.5" font-family="Helvetica,sans-Serif" font-size="10.00" fill="#000000">ads1115.h</text>
</a>
</g>
</g>
<!-- Node1&#45;&gt;Node7 -->
<g id="edge6" class="edge">
<title>Node1&#45;&gt;Node7</title>
<path fill="none" stroke="#191970" d="M318.6272,-112.4425C353.1253,-101.3833 394.56,-88.1004 424.2637,-78.5781"/>
<polygon fill="#191970" stroke="#191970" points="425.4062,-81.8874 433.8604,-75.5017 423.2693,-75.2215 425.4062,-81.8874"/>
</g>
<!-- Node8 -->
<g id="node8" class="node">
<title>Node8</title>
<g id="a_node8"><a xlink:title=" ">
<polygon fill="#ffffff" stroke="#bfbfbf" points="365,-.5 365,-19.5 418,-19.5 418,-.5 365,-.5"/>
<text text-anchor="middle" x="391.5" y="-7.5" font-family="Helvetica,sans-Serif" font-size="10.00" fill="#000000">QObject</text>
</a>
</g>
</g>
<!-- Node7&#45;&gt;Node8 -->
<g id="edge7" class="edge">
<title>Node7&#45;&gt;Node8</title>
<path fill="none" stroke="#191970" d="M450.9586,-56.2455C440.2213,-47.8943 424.5527,-35.7076 411.9953,-25.9408"/>
<polygon fill="#191970" stroke="#191970" points="413.9401,-23.0194 403.8977,-19.6427 409.6425,-28.5449 413.9401,-23.0194"/>
</g>
<!-- Node9 -->
<g id="node9" class="node">
<title>Node9</title>
<g id="a_node9"><a xlink:title=" ">
<polygon fill="#ffffff" stroke="#bfbfbf" points="436.5,-.5 436.5,-19.5 490.5,-19.5 490.5,-.5 436.5,-.5"/>
<text text-anchor="middle" x="463.5" y="-7.5" font-family="Helvetica,sans-Serif" font-size="10.00" fill="#000000">iostream</text>
</a>
</g>
</g>
<!-- Node7&#45;&gt;Node9 -->
<g id="edge8" class="edge">
<title>Node7&#45;&gt;Node9</title>
<path fill="none" stroke="#191970" d="M463.5,-56.2455C463.5,-48.9382 463.5,-38.6944 463.5,-29.7046"/>
<polygon fill="#191970" stroke="#191970" points="467.0001,-29.6426 463.5,-19.6427 460.0001,-29.6427 467.0001,-29.6426"/>
</g>
<!-- Node10 -->
<g id="node10" class="node">
<title>Node10</title>
<g id="a_node10"><a xlink:title=" ">
<polygon fill="#ffffff" stroke="#bfbfbf" points="509,-.5 509,-19.5 550,-19.5 550,-.5 509,-.5"/>
<text text-anchor="middle" x="529.5" y="-7.5" font-family="Helvetica,sans-Serif" font-size="10.00" fill="#000000">string</text>
</a>
</g>
</g>
<!-- Node7&#45;&gt;Node10 -->
<g id="edge9" class="edge">
<title>Node7&#45;&gt;Node10</title>
<path fill="none" stroke="#191970" d="M474.9963,-56.2455C484.7442,-47.9746 498.9259,-35.9416 510.3798,-26.2232"/>
<polygon fill="#191970" stroke="#191970" points="512.7747,-28.7813 518.1354,-19.6427 508.2459,-23.4437 512.7747,-28.7813"/>
</g>
</g>
</svg>
