<?xml version="1.0" encoding="UTF-8" standalone="no"?>
<!DOCTYPE svg PUBLIC "-//W3C//DTD SVG 1.1//EN"
 "http://www.w3.org/Graphics/SVG/1.1/DTD/svg11.dtd">
<!-- Generated by graphviz version 2.40.1 (20161225.0304)
 -->
<!-- Title: /home/finlay/RTEP1/Rpi_end/200322_Rpi_end_together/ads1115.h Pages: 1 -->
<svg width="193pt" height="106pt"
 viewBox="0.00 0.00 193.00 106.00" xmlns="http://www.w3.org/2000/svg" xmlns:xlink="http://www.w3.org/1999/xlink">
<g id="graph0" class="graph" transform="scale(1 1) rotate(0) translate(4 102)">
<title>/home/finlay/RTEP1/Rpi_end/200322_Rpi_end_together/ads1115.h</title>
<polygon fill="#ffffff" stroke="transparent" points="-4,4 -4,-102 189,-102 189,4 -4,4"/>
<!-- Node1 -->
<g id="node1" class="node">
<title>Node1</title>
<g id="a_node1"><a xlink:title="Defines a set of macros for use in configuring the ADS1115 and a class for controlling the configured...">
<polygon fill="#bfbfbf" stroke="#000000" points="35.5,-56.5 35.5,-97.5 161.5,-97.5 161.5,-56.5 35.5,-56.5"/>
<text text-anchor="start" x="43.5" y="-85.5" font-family="Helvetica,sans-Serif" font-size="10.00" fill="#000000">/home/finlay/RTEP1</text>
<text text-anchor="start" x="43.5" y="-74.5" font-family="Helvetica,sans-Serif" font-size="10.00" fill="#000000">/Rpi_end/200322_Rpi</text>
<text text-anchor="middle" x="98.5" y="-63.5" font-family="Helvetica,sans-Serif" font-size="10.00" fill="#000000">_end_together/ads1115.h</text>
</a>
</g>
</g>
<!-- Node2 -->
<g id="node2" class="node">
<title>Node2</title>
<g id="a_node2"><a xlink:title=" ">
<polygon fill="#ffffff" stroke="#bfbfbf" points="0,-.5 0,-19.5 53,-19.5 53,-.5 0,-.5"/>
<text text-anchor="middle" x="26.5" y="-7.5" font-family="Helvetica,sans-Serif" font-size="10.00" fill="#000000">QObject</text>
</a>
</g>
</g>
<!-- Node1&#45;&gt;Node2 -->
<g id="edge1" class="edge">
<title>Node1&#45;&gt;Node2</title>
<path fill="none" stroke="#191970" d="M76.1134,-56.168C65.9222,-46.6846 54.0241,-35.6127 44.4345,-26.689"/>
<polygon fill="#191970" stroke="#191970" points="46.7154,-24.0306 37.0104,-19.7805 41.9468,-29.1551 46.7154,-24.0306"/>
</g>
<!-- Node3 -->
<g id="node3" class="node">
<title>Node3</title>
<g id="a_node3"><a xlink:title=" ">
<polygon fill="#ffffff" stroke="#bfbfbf" points="71.5,-.5 71.5,-19.5 125.5,-19.5 125.5,-.5 71.5,-.5"/>
<text text-anchor="middle" x="98.5" y="-7.5" font-family="Helvetica,sans-Serif" font-size="10.00" fill="#000000">iostream</text>
</a>
</g>
</g>
<!-- Node1&#45;&gt;Node3 -->
<g id="edge2" class="edge">
<title>Node1&#45;&gt;Node3</title>
<path fill="none" stroke="#191970" d="M98.5,-56.168C98.5,-47.8226 98.5,-38.2471 98.5,-29.9879"/>
<polygon fill="#191970" stroke="#191970" points="102.0001,-29.7804 98.5,-19.7805 95.0001,-29.7805 102.0001,-29.7804"/>
</g>
<!-- Node4 -->
<g id="node4" class="node">
<title>Node4</title>
<g id="a_node4"><a xlink:title=" ">
<polygon fill="#ffffff" stroke="#bfbfbf" points="144,-.5 144,-19.5 185,-19.5 185,-.5 144,-.5"/>
<text text-anchor="middle" x="164.5" y="-7.5" font-family="Helvetica,sans-Serif" font-size="10.00" fill="#000000">string</text>
</a>
</g>
</g>
<!-- Node1&#45;&gt;Node4 -->
<g id="edge3" class="edge">
<title>Node1&#45;&gt;Node4</title>
<path fill="none" stroke="#191970" d="M119.021,-56.168C128.2695,-46.7794 139.0516,-35.834 147.7957,-26.9574"/>
<polygon fill="#191970" stroke="#191970" points="150.3412,-29.3607 154.8655,-19.7805 145.3544,-24.4483 150.3412,-29.3607"/>
</g>
</g>
</svg>
