<?xml version="1.0" encoding="UTF-8" standalone="no"?>
<!DOCTYPE svg PUBLIC "-//W3C//DTD SVG 1.1//EN"
 "http://www.w3.org/Graphics/SVG/1.1/DTD/svg11.dtd">
<!-- Generated by graphviz version 2.40.1 (20161225.0304)
 -->
<!-- Title: Window Pages: 1 -->
<svg width="303pt" height="231pt"
 viewBox="0.00 0.00 302.50 231.00" xmlns="http://www.w3.org/2000/svg" xmlns:xlink="http://www.w3.org/1999/xlink">
<g id="graph0" class="graph" transform="scale(1 1) rotate(0) translate(4 227)">
<title>Window</title>
<polygon fill="#ffffff" stroke="transparent" points="-4,4 -4,-227 298.5,-227 298.5,4 -4,4"/>
<!-- Node1 -->
<g id="node1" class="node">
<title>Node1</title>
<g id="a_node1"><a xlink:title="Unknown.">
<polygon fill="#bfbfbf" stroke="#000000" points="103.5,-.5 103.5,-19.5 155.5,-19.5 155.5,-.5 103.5,-.5"/>
<text text-anchor="middle" x="129.5" y="-7.5" font-family="Helvetica,sans-Serif" font-size="10.00" fill="#000000">Window</text>
</a>
</g>
</g>
<!-- Node2 -->
<g id="node2" class="node">
<title>Node2</title>
<g id="a_node2"><a xlink:title=" ">
<polygon fill="#ffffff" stroke="#bfbfbf" points="0,-67.5 0,-86.5 55,-86.5 55,-67.5 0,-67.5"/>
<text text-anchor="middle" x="27.5" y="-74.5" font-family="Helvetica,sans-Serif" font-size="10.00" fill="#000000">QWidget</text>
</a>
</g>
</g>
<!-- Node2&#45;&gt;Node1 -->
<g id="edge1" class="edge">
<title>Node2&#45;&gt;Node1</title>
<path fill="none" stroke="#191970" d="M50.5461,-61.8619C70.2856,-48.8957 98.1099,-30.619 114.913,-19.5817"/>
<polygon fill="#191970" stroke="#191970" points="48.5507,-58.985 42.1141,-67.4005 52.3938,-64.8357 48.5507,-58.985"/>
</g>
<!-- Node3 -->
<g id="node3" class="node">
<title>Node3</title>
<g id="a_node3"><a xlink:href="class_q_timer.html" target="_top" xlink:title="Qt class.">
<polygon fill="#ffffff" stroke="#000000" points="73,-67.5 73,-86.5 122,-86.5 122,-67.5 73,-67.5"/>
<text text-anchor="middle" x="97.5" y="-74.5" font-family="Helvetica,sans-Serif" font-size="10.00" fill="#000000">QTimer</text>
</a>
</g>
</g>
<!-- Node3&#45;&gt;Node1 -->
<g id="edge2" class="edge">
<title>Node3&#45;&gt;Node1</title>
<path fill="none" stroke="#9a32cd" stroke-dasharray="5,2" d="M102.164,-57.5019C104.0385,-51.1177 106.4817,-44.1017 109.5,-38 112.7314,-31.4675 117.4252,-24.8021 121.4535,-19.6142"/>
<polygon fill="#9a32cd" stroke="#9a32cd" points="98.7256,-56.8136 99.545,-67.3767 105.4917,-58.6082 98.7256,-56.8136"/>
<text text-anchor="middle" x="125" y="-41" font-family="Helvetica,sans-Serif" font-size="10.00" fill="#000000"> rftimer</text>
</g>
<!-- Node4 -->
<g id="node4" class="node">
<title>Node4</title>
<g id="a_node4"><a xlink:href="class_g_p_i_olisten.html" target="_top" xlink:title="Is responsible for the data communications and threading involved with conversion and processing.">
<polygon fill="#ffffff" stroke="#000000" points="140,-67.5 140,-86.5 205,-86.5 205,-67.5 140,-67.5"/>
<text text-anchor="middle" x="172.5" y="-74.5" font-family="Helvetica,sans-Serif" font-size="10.00" fill="#000000">GPIOlisten</text>
</a>
</g>
</g>
<!-- Node4&#45;&gt;Node1 -->
<g id="edge3" class="edge">
<title>Node4&#45;&gt;Node1</title>
<path fill="none" stroke="#9a32cd" stroke-dasharray="5,2" d="M160.9351,-58.9803C152.7963,-46.2989 142.2225,-29.8235 135.6494,-19.5817"/>
<polygon fill="#9a32cd" stroke="#9a32cd" points="157.9923,-60.8751 166.3391,-67.4005 163.8834,-57.0942 157.9923,-60.8751"/>
<text text-anchor="middle" x="173" y="-41" font-family="Helvetica,sans-Serif" font-size="10.00" fill="#000000"> gpiolis1</text>
</g>
<!-- Node5 -->
<g id="node5" class="node">
<title>Node5</title>
<g id="a_node5"><a xlink:title=" ">
<polygon fill="#ffffff" stroke="#bfbfbf" points="44.5,-135.5 44.5,-154.5 98.5,-154.5 98.5,-135.5 44.5,-135.5"/>
<text text-anchor="middle" x="71.5" y="-142.5" font-family="Helvetica,sans-Serif" font-size="10.00" fill="#000000">QThread</text>
</a>
</g>
</g>
<!-- Node5&#45;&gt;Node4 -->
<g id="edge4" class="edge">
<title>Node5&#45;&gt;Node4</title>
<path fill="none" stroke="#191970" d="M94.3712,-129.6016C114.0422,-116.3577 141.7934,-97.6738 158.3816,-86.5054"/>
<polygon fill="#191970" stroke="#191970" points="92.3113,-126.7691 85.9708,-135.2573 96.2207,-132.5757 92.3113,-126.7691"/>
</g>
<!-- Node6 -->
<g id="node6" class="node">
<title>Node6</title>
<g id="a_node6"><a xlink:href="classads1115.html" target="_top" xlink:title="Allows control over the ADS1115 ADC.">
<polygon fill="#ffffff" stroke="#000000" points="117,-135.5 117,-154.5 170,-154.5 170,-135.5 117,-135.5"/>
<text text-anchor="middle" x="143.5" y="-142.5" font-family="Helvetica,sans-Serif" font-size="10.00" fill="#000000">ads1115</text>
</a>
</g>
</g>
<!-- Node6&#45;&gt;Node4 -->
<g id="edge5" class="edge">
<title>Node6&#45;&gt;Node4</title>
<path fill="none" stroke="#9a32cd" stroke-dasharray="5,2" d="M151.6211,-125.9574C157.0645,-113.1937 164.0058,-96.9175 168.3527,-86.7247"/>
<polygon fill="#9a32cd" stroke="#9a32cd" points="148.3585,-124.6858 147.655,-135.2573 154.7974,-127.4318 148.3585,-124.6858"/>
<text text-anchor="middle" x="173" y="-108" font-family="Helvetica,sans-Serif" font-size="10.00" fill="#000000"> ads1</text>
</g>
<!-- Node7 -->
<g id="node7" class="node">
<title>Node7</title>
<g id="a_node7"><a xlink:title=" ">
<polygon fill="#ffffff" stroke="#bfbfbf" points="117,-203.5 117,-222.5 170,-222.5 170,-203.5 117,-203.5"/>
<text text-anchor="middle" x="143.5" y="-210.5" font-family="Helvetica,sans-Serif" font-size="10.00" fill="#000000">QObject</text>
</a>
</g>
</g>
<!-- Node7&#45;&gt;Node6 -->
<g id="edge6" class="edge">
<title>Node7&#45;&gt;Node6</title>
<path fill="none" stroke="#191970" d="M143.5,-193.1951C143.5,-180.5514 143.5,-164.7157 143.5,-154.7247"/>
<polygon fill="#191970" stroke="#191970" points="140.0001,-193.2572 143.5,-203.2573 147.0001,-193.2573 140.0001,-193.2572"/>
</g>
<!-- Node8 -->
<g id="node8" class="node">
<title>Node8</title>
<g id="a_node8"><a xlink:title=" ">
<polygon fill="#ffffff" stroke="#bfbfbf" points="192,-203.5 192,-222.5 221,-222.5 221,-203.5 192,-203.5"/>
<text text-anchor="middle" x="206.5" y="-210.5" font-family="Helvetica,sans-Serif" font-size="10.00" fill="#000000">int</text>
</a>
</g>
</g>
<!-- Node8&#45;&gt;Node1 -->
<g id="edge9" class="edge">
<title>Node8&#45;&gt;Node1</title>
<path fill="none" stroke="#9a32cd" stroke-dasharray="5,2" d="M217.821,-194.5252C223.7705,-183.7227 230.4469,-169.5776 233.5,-156 242.3736,-116.5385 231.2936,-103.7957 214.5,-67 208.1022,-52.9821 207.3248,-47.8796 195.5,-38 183.9424,-28.3437 168.5656,-21.5603 155.5621,-17.0913"/>
<polygon fill="#9a32cd" stroke="#9a32cd" points="214.6678,-192.9862 212.6863,-203.3941 220.7257,-196.4935 214.6678,-192.9862"/>
<text text-anchor="middle" x="264.5" y="-108" font-family="Helvetica,sans-Serif" font-size="10.00" fill="#000000"> plotDataSize</text>
</g>
<!-- Node8&#45;&gt;Node4 -->
<g id="edge8" class="edge">
<title>Node8&#45;&gt;Node4</title>
<path fill="none" stroke="#9a32cd" stroke-dasharray="5,2" d="M205.6912,-193.3333C204.2658,-171.2393 200.334,-134.5981 189.5,-105 187.1152,-98.4847 183.1425,-91.8202 179.637,-86.6283"/>
<polygon fill="#9a32cd" stroke="#9a32cd" points="202.2029,-193.6476 206.2314,-203.4466 209.1929,-193.2741 202.2029,-193.6476"/>
<text text-anchor="middle" x="215.5" y="-148" font-family="Helvetica,sans-Serif" font-size="10.00" fill="#000000"> count</text>
<text text-anchor="middle" x="215.5" y="-137" font-family="Helvetica,sans-Serif" font-size="10.00" fill="#000000">flag</text>
</g>
<!-- Node8&#45;&gt;Node6 -->
<g id="edge7" class="edge">
<title>Node8&#45;&gt;Node6</title>
<path fill="none" stroke="#9a32cd" stroke-dasharray="5,2" d="M190.6614,-195.9535C187.3052,-192.3384 183.7847,-188.5442 180.5,-185 170.8546,-174.5926 159.8094,-162.6485 152.3164,-154.5415"/>
<polygon fill="#9a32cd" stroke="#9a32cd" points="188.221,-198.469 197.5908,-203.4146 193.3501,-193.7054 188.221,-198.469"/>
<text text-anchor="middle" x="186.5" y="-177" font-family="Helvetica,sans-Serif" font-size="10.00" fill="#000000"> fd</text>
</g>
</g>
</svg>
