<?xml version="1.0" encoding="UTF-8" standalone="no"?>
<!DOCTYPE svg PUBLIC "-//W3C//DTD SVG 1.1//EN"
 "http://www.w3.org/Graphics/SVG/1.1/DTD/svg11.dtd">
<!-- Generated by graphviz version 2.40.1 (20161225.0304)
 -->
<!-- Title: MainWindow Pages: 1 -->
<svg width="234pt" height="150pt"
 viewBox="0.00 0.00 234.00 150.00" xmlns="http://www.w3.org/2000/svg" xmlns:xlink="http://www.w3.org/1999/xlink">
<g id="graph0" class="graph" transform="scale(1 1) rotate(0) translate(4 146)">
<title>MainWindow</title>
<polygon fill="#ffffff" stroke="transparent" points="-4,4 -4,-146 230,-146 230,4 -4,4"/>
<!-- Node1 -->
<g id="node1" class="node">
<title>Node1</title>
<g id="a_node1"><a xlink:title=" ">
<polygon fill="#bfbfbf" stroke="#000000" points="86.5,-.5 86.5,-19.5 159.5,-19.5 159.5,-.5 86.5,-.5"/>
<text text-anchor="middle" x="123" y="-7.5" font-family="Helvetica,sans-Serif" font-size="10.00" fill="#000000">MainWindow</text>
</a>
</g>
</g>
<!-- Node2 -->
<g id="node2" class="node">
<title>Node2</title>
<g id="a_node2"><a xlink:title=" ">
<polygon fill="#ffffff" stroke="#bfbfbf" points="0,-122.5 0,-141.5 80,-141.5 80,-122.5 0,-122.5"/>
<text text-anchor="middle" x="40" y="-129.5" font-family="Helvetica,sans-Serif" font-size="10.00" fill="#000000">QMainWindow</text>
</a>
</g>
</g>
<!-- Node2&#45;&gt;Node1 -->
<g id="edge1" class="edge">
<title>Node2&#45;&gt;Node1</title>
<path fill="none" stroke="#191970" d="M52.1508,-114.1398C69.9942,-87.9121 102.6655,-39.8892 116.5174,-19.5287"/>
<polygon fill="#191970" stroke="#191970" points="49.2441,-112.1901 46.5129,-122.4269 55.0317,-116.1276 49.2441,-112.1901"/>
</g>
<!-- Node3 -->
<g id="node3" class="node">
<title>Node3</title>
<g id="a_node3"><a xlink:href="class_q_timer.html" target="_top" xlink:title="Qt class.">
<polygon fill="#ffffff" stroke="#000000" points="98.5,-122.5 98.5,-141.5 147.5,-141.5 147.5,-122.5 98.5,-122.5"/>
<text text-anchor="middle" x="123" y="-129.5" font-family="Helvetica,sans-Serif" font-size="10.00" fill="#000000">QTimer</text>
</a>
</g>
</g>
<!-- Node3&#45;&gt;Node1 -->
<g id="edge2" class="edge">
<title>Node3&#45;&gt;Node1</title>
<path fill="none" stroke="#9a32cd" stroke-dasharray="5,2" d="M123,-112.3912C123,-85.8282 123,-39.4446 123,-19.5287"/>
<polygon fill="#9a32cd" stroke="#9a32cd" points="119.5001,-112.4268 123,-122.4269 126.5001,-112.4269 119.5001,-112.4268"/>
<text text-anchor="middle" x="138.5" y="-68.5" font-family="Helvetica,sans-Serif" font-size="10.00" fill="#000000"> iTimer</text>
</g>
<!-- Node4 -->
<g id="node4" class="node">
<title>Node4</title>
<g id="a_node4"><a xlink:title=" ">
<polygon fill="#ffffff" stroke="#bfbfbf" points="165.5,-122.5 165.5,-141.5 194.5,-141.5 194.5,-122.5 165.5,-122.5"/>
<text text-anchor="middle" x="180" y="-129.5" font-family="Helvetica,sans-Serif" font-size="10.00" fill="#000000">int</text>
</a>
</g>
</g>
<!-- Node4&#45;&gt;Node1 -->
<g id="edge3" class="edge">
<title>Node4&#45;&gt;Node1</title>
<path fill="none" stroke="#9a32cd" stroke-dasharray="5,2" d="M179.1175,-112.2941C177.4058,-92.2129 172.4241,-60.8552 158,-38 153.3485,-30.6297 146.0679,-24.349 139.3489,-19.6153"/>
<polygon fill="#9a32cd" stroke="#9a32cd" points="175.6343,-112.6662 179.7828,-122.4151 182.6192,-112.207 175.6343,-112.6662"/>
<text text-anchor="middle" x="202" y="-96" font-family="Helvetica,sans-Serif" font-size="10.00" fill="#000000"> totalWidth</text>
<text text-anchor="middle" x="202" y="-85" font-family="Helvetica,sans-Serif" font-size="10.00" fill="#000000">totalHeight</text>
<text text-anchor="middle" x="202" y="-74" font-family="Helvetica,sans-Serif" font-size="10.00" fill="#000000">wdheight</text>
<text text-anchor="middle" x="202" y="-63" font-family="Helvetica,sans-Serif" font-size="10.00" fill="#000000">rfshcount</text>
<text text-anchor="middle" x="202" y="-52" font-family="Helvetica,sans-Serif" font-size="10.00" fill="#000000">wdwidth</text>
<text text-anchor="middle" x="202" y="-41" font-family="Helvetica,sans-Serif" font-size="10.00" fill="#000000">iScore</text>
</g>
</g>
</svg>
