<?xml version="1.0" encoding="UTF-8" standalone="no"?>
<!DOCTYPE svg PUBLIC "-//W3C//DTD SVG 1.1//EN"
 "http://www.w3.org/Graphics/SVG/1.1/DTD/svg11.dtd">
<!-- Generated by graphviz version 2.40.1 (20161225.0304)
 -->
<!-- Title: ads1115 Pages: 1 -->
<svg width="108pt" height="95pt"
 viewBox="0.00 0.00 108.00 95.00" xmlns="http://www.w3.org/2000/svg" xmlns:xlink="http://www.w3.org/1999/xlink">
<g id="graph0" class="graph" transform="scale(1 1) rotate(0) translate(4 91)">
<title>ads1115</title>
<polygon fill="#ffffff" stroke="transparent" points="-4,4 -4,-91 104,-91 104,4 -4,4"/>
<!-- Node1 -->
<g id="node1" class="node">
<title>Node1</title>
<g id="a_node1"><a xlink:title="Allows control over the ADS1115 ADC.">
<polygon fill="#bfbfbf" stroke="#000000" points="29,-.5 29,-19.5 82,-19.5 82,-.5 29,-.5"/>
<text text-anchor="middle" x="55.5" y="-7.5" font-family="Helvetica,sans-Serif" font-size="10.00" fill="#000000">ads1115</text>
</a>
</g>
</g>
<!-- Node2 -->
<g id="node2" class="node">
<title>Node2</title>
<g id="a_node2"><a xlink:title=" ">
<polygon fill="#ffffff" stroke="#bfbfbf" points="0,-67.5 0,-86.5 53,-86.5 53,-67.5 0,-67.5"/>
<text text-anchor="middle" x="26.5" y="-74.5" font-family="Helvetica,sans-Serif" font-size="10.00" fill="#000000">QObject</text>
</a>
</g>
</g>
<!-- Node2&#45;&gt;Node1 -->
<g id="edge1" class="edge">
<title>Node2&#45;&gt;Node1</title>
<path fill="none" stroke="#191970" d="M34.7832,-57.8628C40.2017,-45.3444 47.0488,-29.5252 51.3527,-19.5817"/>
<polygon fill="#191970" stroke="#191970" points="31.4153,-56.833 30.655,-67.4005 37.8393,-59.6136 31.4153,-56.833"/>
</g>
<!-- Node3 -->
<g id="node3" class="node">
<title>Node3</title>
<g id="a_node3"><a xlink:title=" ">
<polygon fill="#ffffff" stroke="#bfbfbf" points="71,-67.5 71,-86.5 100,-86.5 100,-67.5 71,-67.5"/>
<text text-anchor="middle" x="85.5" y="-74.5" font-family="Helvetica,sans-Serif" font-size="10.00" fill="#000000">int</text>
</a>
</g>
</g>
<!-- Node3&#45;&gt;Node1 -->
<g id="edge2" class="edge">
<title>Node3&#45;&gt;Node1</title>
<path fill="none" stroke="#9a32cd" stroke-dasharray="5,2" d="M77.0988,-58.2374C71.4678,-45.6614 64.2871,-29.6246 59.7903,-19.5817"/>
<polygon fill="#9a32cd" stroke="#9a32cd" points="73.9206,-59.704 81.2017,-67.4005 80.3094,-56.8433 73.9206,-59.704"/>
<text text-anchor="middle" x="77.5" y="-41" font-family="Helvetica,sans-Serif" font-size="10.00" fill="#000000"> fd</text>
</g>
</g>
</svg>
