<?xml version="1.0" encoding="UTF-8" standalone="no"?>
<!DOCTYPE svg PUBLIC "-//W3C//DTD SVG 1.1//EN"
 "http://www.w3.org/Graphics/SVG/1.1/DTD/svg11.dtd">
<!-- Generated by graphviz version 2.40.1 (20161225.0304)
 -->
<!-- Title: GPIOlisten Pages: 1 -->
<svg width="185pt" height="164pt"
 viewBox="0.00 0.00 185.00 164.00" xmlns="http://www.w3.org/2000/svg" xmlns:xlink="http://www.w3.org/1999/xlink">
<g id="graph0" class="graph" transform="scale(1 1) rotate(0) translate(4 160)">
<title>GPIOlisten</title>
<polygon fill="#ffffff" stroke="transparent" points="-4,4 -4,-160 181,-160 181,4 -4,4"/>
<!-- Node1 -->
<g id="node1" class="node">
<title>Node1</title>
<g id="a_node1"><a xlink:title="Is responsible for the data communications and threading involved with conversion and processing.">
<polygon fill="#bfbfbf" stroke="#000000" points="66.5,-.5 66.5,-19.5 131.5,-19.5 131.5,-.5 66.5,-.5"/>
<text text-anchor="middle" x="99" y="-7.5" font-family="Helvetica,sans-Serif" font-size="10.00" fill="#000000">GPIOlisten</text>
</a>
</g>
</g>
<!-- Node2 -->
<g id="node2" class="node">
<title>Node2</title>
<g id="a_node2"><a xlink:title=" ">
<polygon fill="#ffffff" stroke="#bfbfbf" points="0,-68.5 0,-87.5 54,-87.5 54,-68.5 0,-68.5"/>
<text text-anchor="middle" x="27" y="-75.5" font-family="Helvetica,sans-Serif" font-size="10.00" fill="#000000">QThread</text>
</a>
</g>
</g>
<!-- Node2&#45;&gt;Node1 -->
<g id="edge1" class="edge">
<title>Node2&#45;&gt;Node1</title>
<path fill="none" stroke="#191970" d="M44.7958,-61.1929C58.607,-48.1489 77.2697,-30.523 88.7033,-19.7247"/>
<polygon fill="#191970" stroke="#191970" points="42.1828,-58.8464 37.3158,-68.2573 46.9892,-63.9355 42.1828,-58.8464"/>
</g>
<!-- Node3 -->
<g id="node3" class="node">
<title>Node3</title>
<g id="a_node3"><a xlink:href="classads1115.html" target="_top" xlink:title="Allows control over the ADS1115 ADC.">
<polygon fill="#ffffff" stroke="#000000" points="72.5,-68.5 72.5,-87.5 125.5,-87.5 125.5,-68.5 72.5,-68.5"/>
<text text-anchor="middle" x="99" y="-75.5" font-family="Helvetica,sans-Serif" font-size="10.00" fill="#000000">ads1115</text>
</a>
</g>
</g>
<!-- Node3&#45;&gt;Node1 -->
<g id="edge2" class="edge">
<title>Node3&#45;&gt;Node1</title>
<path fill="none" stroke="#9a32cd" stroke-dasharray="5,2" d="M99,-58.1951C99,-45.5514 99,-29.7157 99,-19.7247"/>
<polygon fill="#9a32cd" stroke="#9a32cd" points="95.5001,-58.2572 99,-68.2573 102.5001,-58.2573 95.5001,-58.2572"/>
<text text-anchor="middle" x="111.5" y="-41" font-family="Helvetica,sans-Serif" font-size="10.00" fill="#000000"> ads1</text>
</g>
<!-- Node4 -->
<g id="node4" class="node">
<title>Node4</title>
<g id="a_node4"><a xlink:title=" ">
<polygon fill="#ffffff" stroke="#bfbfbf" points="72.5,-136.5 72.5,-155.5 125.5,-155.5 125.5,-136.5 72.5,-136.5"/>
<text text-anchor="middle" x="99" y="-143.5" font-family="Helvetica,sans-Serif" font-size="10.00" fill="#000000">QObject</text>
</a>
</g>
</g>
<!-- Node4&#45;&gt;Node3 -->
<g id="edge3" class="edge">
<title>Node4&#45;&gt;Node3</title>
<path fill="none" stroke="#191970" d="M99,-126.1951C99,-113.5514 99,-97.7157 99,-87.7247"/>
<polygon fill="#191970" stroke="#191970" points="95.5001,-126.2572 99,-136.2573 102.5001,-126.2573 95.5001,-126.2572"/>
</g>
<!-- Node5 -->
<g id="node5" class="node">
<title>Node5</title>
<g id="a_node5"><a xlink:title=" ">
<polygon fill="#ffffff" stroke="#bfbfbf" points="145.5,-136.5 145.5,-155.5 174.5,-155.5 174.5,-136.5 145.5,-136.5"/>
<text text-anchor="middle" x="160" y="-143.5" font-family="Helvetica,sans-Serif" font-size="10.00" fill="#000000">int</text>
</a>
</g>
</g>
<!-- Node5&#45;&gt;Node1 -->
<g id="edge5" class="edge">
<title>Node5&#45;&gt;Node1</title>
<path fill="none" stroke="#9a32cd" stroke-dasharray="5,2" d="M157.2762,-126.3119C153.4672,-103.6732 145.0126,-66.0307 128,-38 123.7879,-31.06 117.4387,-24.6603 111.7539,-19.7363"/>
<polygon fill="#9a32cd" stroke="#9a32cd" points="153.8458,-127.0324 158.8278,-136.3828 160.7642,-125.9664 153.8458,-127.0324"/>
<text text-anchor="middle" x="163" y="-81" font-family="Helvetica,sans-Serif" font-size="10.00" fill="#000000"> count</text>
<text text-anchor="middle" x="163" y="-70" font-family="Helvetica,sans-Serif" font-size="10.00" fill="#000000">flag</text>
</g>
<!-- Node5&#45;&gt;Node3 -->
<g id="edge4" class="edge">
<title>Node5&#45;&gt;Node3</title>
<path fill="none" stroke="#9a32cd" stroke-dasharray="5,2" d="M144.2626,-128.4567C132.6329,-115.4924 117.2293,-98.3212 107.7236,-87.7247"/>
<polygon fill="#9a32cd" stroke="#9a32cd" points="141.9773,-131.1506 151.2602,-136.2573 147.188,-126.4763 141.9773,-131.1506"/>
<text text-anchor="middle" x="140" y="-110" font-family="Helvetica,sans-Serif" font-size="10.00" fill="#000000"> fd</text>
</g>
</g>
</svg>
