<?xml version="1.0" encoding="UTF-8" standalone="no"?>
<!DOCTYPE svg PUBLIC "-//W3C//DTD SVG 1.1//EN"
 "http://www.w3.org/Graphics/SVG/1.1/DTD/svg11.dtd">
<!-- Generated by graphviz version 2.40.1 (20161225.0304)
 -->
<!-- Title: /home/finlay/RTEP1/Server_end/0301_Pong_GUI/mainwindow.cpp Pages: 1 -->
<!--zoomable 162 -->
<svg id="main" version="1.1" xmlns="http://www.w3.org/2000/svg" xmlns:xlink="http://www.w3.org/1999/xlink" xml:space="preserve" onload="init(evt)">
<style type="text/css"><![CDATA[
.edge:hover path { stroke: red; }
.edge:hover polygon { stroke: red; fill: red; }
]]></style>
<script type="text/javascript"><![CDATA[
var edges = document.getElementsByTagName('g');
if (edges && edges.length) {
  for (var i=0;i<edges.length;i++) {
    if (edges[i].id.substr(0,4)=='edge') {
      edges[i].setAttribute('class','edge');
    }
  }
}
]]></script>
        <defs>
                <circle id="rim" cx="0" cy="0" r="7"/>
                <circle id="rim2" cx="0" cy="0" r="3.5"/>
                <g id="zoomPlus">
                        <use xlink:href="#rim" fill="#404040">
                                <set attributeName="fill" to="#808080" begin="zoomplus.mouseover" end="zoomplus.mouseout"/>
                        </use>
                        <path d="M-4,0h8M0,-4v8" fill="none" stroke="white" stroke-width="1.5" pointer-events="none"/>
                </g>
                <g id="zoomMin">
                        <use xlink:href="#rim" fill="#404040">
                                <set attributeName="fill" to="#808080" begin="zoomminus.mouseover" end="zoomminus.mouseout"/>
                        </use>
                        <path d="M-4,0h8" fill="none" stroke="white" stroke-width="1.5" pointer-events="none"/>
                </g>
                <g id="dirArrow">
                        <path fill="none" stroke="white" stroke-width="1.5" d="M0,-3.0v7 M-2.5,-0.5L0,-3.0L2.5,-0.5"/>
                </g>
               <g id="resetDef">
                       <use xlink:href="#rim2" fill="#404040">
                               <set attributeName="fill" to="#808080" begin="reset.mouseover" end="reset.mouseout"/>
                       </use>
               </g>
        </defs>

<script type="text/javascript">
var viewWidth = 891;
var viewHeight = 162;
var sectionId = 'dynsection-0';
</script>
<script xlink:href="svgpan.js"/>
<svg id="graph" class="graph">
<g id="viewport">
<title>/home/finlay/RTEP1/Server_end/0301_Pong_GUI/mainwindow.cpp</title>
<polygon fill="#ffffff" stroke="transparent" points="-4,4 -4,-158 887,-158 887,4 -4,4"/>
<!-- Node1 -->
<g id="node1" class="node">
<title>Node1</title>
<g id="a_node1"><a xlink:title=" ">
<polygon fill="#bfbfbf" stroke="#000000" points="407,-112.5 407,-153.5 528,-153.5 528,-112.5 407,-112.5"/>
<text text-anchor="start" x="415" y="-141.5" font-family="Helvetica,sans-Serif" font-size="10.00" fill="#000000">/home/finlay/RTEP1</text>
<text text-anchor="start" x="415" y="-130.5" font-family="Helvetica,sans-Serif" font-size="10.00" fill="#000000">/Server_end/0301_Pong</text>
<text text-anchor="middle" x="467.5" y="-119.5" font-family="Helvetica,sans-Serif" font-size="10.00" fill="#000000">_GUI/mainwindow.cpp</text>
</a>
</g>
</g>
<!-- Node2 -->
<g id="node2" class="node">
<title>Node2</title>
<g id="a_node2"><a xlink:href="mainwindow_8h.html" target="_top" xlink:title=" ">
<polygon fill="#ffffff" stroke="#000000" points="145,-56.5 145,-75.5 224,-75.5 224,-56.5 145,-56.5"/>
<text text-anchor="middle" x="184.5" y="-63.5" font-family="Helvetica,sans-Serif" font-size="10.00" fill="#000000">mainwindow.h</text>
</a>
</g>
</g>
<!-- Node1&#45;&gt;Node2 -->
<g id="edge1" class="edge">
<title>Node1&#45;&gt;Node2</title>
<path fill="none" stroke="#191970" d="M406.7894,-118.6268C355.2364,-106.4217 282.1672,-89.1226 234.0751,-77.7368"/>
<polygon fill="#191970" stroke="#191970" points="234.7459,-74.299 224.2086,-75.401 233.1332,-81.1107 234.7459,-74.299"/>
</g>
<!-- Node3 -->
<g id="node3" class="node">
<title>Node3</title>
<g id="a_node3"><a xlink:title=" ">
<polygon fill="#ffffff" stroke="#bfbfbf" points="0,-.5 0,-19.5 53,-19.5 53,-.5 0,-.5"/>
<text text-anchor="middle" x="26.5" y="-7.5" font-family="Helvetica,sans-Serif" font-size="10.00" fill="#000000">QObject</text>
</a>
</g>
</g>
<!-- Node1&#45;&gt;Node3 -->
<g id="edge15" class="edge">
<title>Node1&#45;&gt;Node3</title>
<path fill="none" stroke="#191970" d="M406.9867,-126.4944C321.3575,-116.7164 169.5605,-97.114 118.5,-76 89.9321,-64.1869 61.7441,-41.9802 44.2505,-26.608"/>
<polygon fill="#191970" stroke="#191970" points="46.3393,-23.779 36.5669,-19.6862 41.6541,-28.9799 46.3393,-23.779"/>
</g>
<!-- Node4 -->
<g id="node4" class="node">
<title>Node4</title>
<g id="a_node4"><a xlink:title=" ">
<polygon fill="#ffffff" stroke="#bfbfbf" points="71,-.5 71,-19.5 162,-19.5 162,-.5 71,-.5"/>
<text text-anchor="middle" x="116.5" y="-7.5" font-family="Helvetica,sans-Serif" font-size="10.00" fill="#000000">QGraphicsScene</text>
</a>
</g>
</g>
<!-- Node1&#45;&gt;Node4 -->
<g id="edge8" class="edge">
<title>Node1&#45;&gt;Node4</title>
<path fill="none" stroke="#191970" d="M406.9997,-130.054C322.6751,-124.731 175.7225,-110.6477 136.5,-76 123.486,-64.5039 118.7985,-44.8506 117.18,-29.9723"/>
<polygon fill="#191970" stroke="#191970" points="120.6531,-29.4668 116.4535,-19.7398 113.6706,-29.9626 120.6531,-29.4668"/>
</g>
<!-- Node8 -->
<g id="node8" class="node">
<title>Node8</title>
<g id="a_node8"><a xlink:title=" ">
<polygon fill="#ffffff" stroke="#bfbfbf" points="242.5,-56.5 242.5,-75.5 334.5,-75.5 334.5,-56.5 242.5,-56.5"/>
<text text-anchor="middle" x="288.5" y="-63.5" font-family="Helvetica,sans-Serif" font-size="10.00" fill="#000000">ui_mainwindow.h</text>
</a>
</g>
</g>
<!-- Node1&#45;&gt;Node8 -->
<g id="edge7" class="edge">
<title>Node1&#45;&gt;Node8</title>
<path fill="none" stroke="#191970" d="M412.3335,-112.3511C383.4955,-101.557 349.0521,-88.6647 323.8202,-79.2204"/>
<polygon fill="#191970" stroke="#191970" points="324.8861,-75.8823 314.2937,-75.6546 322.4322,-82.4381 324.8861,-75.8823"/>
</g>
<!-- Node9 -->
<g id="node9" class="node">
<title>Node9</title>
<g id="a_node9"><a xlink:title=" ">
<polygon fill="#ffffff" stroke="#bfbfbf" points="352.5,-56.5 352.5,-75.5 456.5,-75.5 456.5,-56.5 352.5,-56.5"/>
<text text-anchor="middle" x="404.5" y="-63.5" font-family="Helvetica,sans-Serif" font-size="10.00" fill="#000000">QGraphicsRectItem</text>
</a>
</g>
</g>
<!-- Node1&#45;&gt;Node9 -->
<g id="edge9" class="edge">
<title>Node1&#45;&gt;Node9</title>
<path fill="none" stroke="#191970" d="M447.9117,-112.168C439.1728,-102.8742 428.9994,-92.0549 420.6985,-83.227"/>
<polygon fill="#191970" stroke="#191970" points="423.0967,-80.6681 413.6966,-75.7805 417.997,-85.4633 423.0967,-80.6681"/>
</g>
<!-- Node10 -->
<g id="node10" class="node">
<title>Node10</title>
<g id="a_node10"><a xlink:title=" ">
<polygon fill="#ffffff" stroke="#bfbfbf" points="474.5,-56.5 474.5,-75.5 586.5,-75.5 586.5,-56.5 474.5,-56.5"/>
<text text-anchor="middle" x="530.5" y="-63.5" font-family="Helvetica,sans-Serif" font-size="10.00" fill="#000000">QGraphicsEllipseItem</text>
</a>
</g>
</g>
<!-- Node1&#45;&gt;Node10 -->
<g id="edge10" class="edge">
<title>Node1&#45;&gt;Node10</title>
<path fill="none" stroke="#191970" d="M487.0883,-112.168C495.8272,-102.8742 506.0006,-92.0549 514.3015,-83.227"/>
<polygon fill="#191970" stroke="#191970" points="517.003,-85.4633 521.3034,-75.7805 511.9033,-80.6681 517.003,-85.4633"/>
</g>
<!-- Node11 -->
<g id="node11" class="node">
<title>Node11</title>
<g id="a_node11"><a xlink:title=" ">
<polygon fill="#ffffff" stroke="#bfbfbf" points="605,-56.5 605,-75.5 646,-75.5 646,-56.5 605,-56.5"/>
<text text-anchor="middle" x="625.5" y="-63.5" font-family="Helvetica,sans-Serif" font-size="10.00" fill="#000000">QPen</text>
</a>
</g>
</g>
<!-- Node1&#45;&gt;Node11 -->
<g id="edge11" class="edge">
<title>Node1&#45;&gt;Node11</title>
<path fill="none" stroke="#191970" d="M516.1944,-112.3511C542.1012,-101.3653 573.1329,-88.2063 595.502,-78.7207"/>
<polygon fill="#191970" stroke="#191970" points="596.9789,-81.8962 604.8189,-74.7698 594.246,-75.4516 596.9789,-81.8962"/>
</g>
<!-- Node12 -->
<g id="node12" class="node">
<title>Node12</title>
<g id="a_node12"><a xlink:title=" ">
<polygon fill="#ffffff" stroke="#bfbfbf" points="664.5,-56.5 664.5,-75.5 744.5,-75.5 744.5,-56.5 664.5,-56.5"/>
<text text-anchor="middle" x="704.5" y="-63.5" font-family="Helvetica,sans-Serif" font-size="10.00" fill="#000000">QResizeEvent</text>
</a>
</g>
</g>
<!-- Node1&#45;&gt;Node12 -->
<g id="edge12" class="edge">
<title>Node1&#45;&gt;Node12</title>
<path fill="none" stroke="#191970" d="M528.2256,-115.8328C569.595,-104.1377 623.4023,-88.9264 660.6332,-78.4012"/>
<polygon fill="#191970" stroke="#191970" points="661.9999,-81.652 670.6706,-75.5636 660.0956,-74.916 661.9999,-81.652"/>
</g>
<!-- Node13 -->
<g id="node13" class="node">
<title>Node13</title>
<g id="a_node13"><a xlink:title=" ">
<polygon fill="#ffffff" stroke="#bfbfbf" points="763,-56.5 763,-75.5 816,-75.5 816,-56.5 763,-56.5"/>
<text text-anchor="middle" x="789.5" y="-63.5" font-family="Helvetica,sans-Serif" font-size="10.00" fill="#000000">QDebug</text>
</a>
</g>
</g>
<!-- Node1&#45;&gt;Node13 -->
<g id="edge13" class="edge">
<title>Node1&#45;&gt;Node13</title>
<path fill="none" stroke="#191970" d="M528.0418,-122.2832C583.9134,-112.0875 669.3624,-95.7236 752.908,-76.006"/>
<polygon fill="#191970" stroke="#191970" points="753.9021,-79.3673 762.8208,-73.6483 752.2823,-72.5573 753.9021,-79.3673"/>
</g>
<!-- Node14 -->
<g id="node14" class="node">
<title>Node14</title>
<g id="a_node14"><a xlink:title=" ">
<polygon fill="#ffffff" stroke="#bfbfbf" points="834,-56.5 834,-75.5 883,-75.5 883,-56.5 834,-56.5"/>
<text text-anchor="middle" x="858.5" y="-63.5" font-family="Helvetica,sans-Serif" font-size="10.00" fill="#000000">QTimer</text>
</a>
</g>
</g>
<!-- Node1&#45;&gt;Node14 -->
<g id="edge14" class="edge">
<title>Node1&#45;&gt;Node14</title>
<path fill="none" stroke="#191970" d="M528.1589,-125.9056C597.6574,-117.2055 715.0236,-100.7688 823.8981,-76.1526"/>
<polygon fill="#191970" stroke="#191970" points="824.7645,-79.5448 833.7312,-73.9014 823.2023,-72.7214 824.7645,-79.5448"/>
</g>
<!-- Node2&#45;&gt;Node3 -->
<g id="edge2" class="edge">
<title>Node2&#45;&gt;Node3</title>
<path fill="none" stroke="#191970" d="M157.3388,-56.3733C131.2144,-47.114 91.5489,-33.0553 62.7407,-22.8448"/>
<polygon fill="#191970" stroke="#191970" points="63.6385,-19.4497 53.0438,-19.4079 61.3,-26.0476 63.6385,-19.4497"/>
</g>
<!-- Node2&#45;&gt;Node4 -->
<g id="edge3" class="edge">
<title>Node2&#45;&gt;Node4</title>
<path fill="none" stroke="#191970" d="M172.6553,-56.2455C162.612,-47.9746 148.0005,-35.9416 136.1996,-26.2232"/>
<polygon fill="#191970" stroke="#191970" points="138.1533,-23.298 128.209,-19.6427 133.7033,-28.7015 138.1533,-23.298"/>
</g>
<!-- Node5 -->
<g id="node5" class="node">
<title>Node5</title>
<g id="a_node5"><a xlink:title=" ">
<polygon fill="#ffffff" stroke="#bfbfbf" points="180.5,-.5 180.5,-19.5 260.5,-19.5 260.5,-.5 180.5,-.5"/>
<text text-anchor="middle" x="220.5" y="-7.5" font-family="Helvetica,sans-Serif" font-size="10.00" fill="#000000">QMainWindow</text>
</a>
</g>
</g>
<!-- Node2&#45;&gt;Node5 -->
<g id="edge4" class="edge">
<title>Node2&#45;&gt;Node5</title>
<path fill="none" stroke="#191970" d="M190.7707,-56.2455C195.7264,-48.5367 202.783,-37.5598 208.7776,-28.2348"/>
<polygon fill="#191970" stroke="#191970" points="211.8376,-29.9471 214.3011,-19.6427 205.9494,-26.1618 211.8376,-29.9471"/>
</g>
<!-- Node6 -->
<g id="node6" class="node">
<title>Node6</title>
<g id="a_node6"><a xlink:title=" ">
<polygon fill="#ffffff" stroke="#bfbfbf" points="279,-.5 279,-19.5 352,-19.5 352,-.5 279,-.5"/>
<text text-anchor="middle" x="315.5" y="-7.5" font-family="Helvetica,sans-Serif" font-size="10.00" fill="#000000">QUdpSocket</text>
</a>
</g>
</g>
<!-- Node2&#45;&gt;Node6 -->
<g id="edge5" class="edge">
<title>Node2&#45;&gt;Node6</title>
<path fill="none" stroke="#191970" d="M207.0197,-56.3733C228.2372,-47.3032 260.2276,-33.6279 283.9769,-23.4755"/>
<polygon fill="#191970" stroke="#191970" points="285.4548,-26.6502 293.2742,-19.5011 282.7033,-20.2136 285.4548,-26.6502"/>
</g>
<!-- Node7 -->
<g id="node7" class="node">
<title>Node7</title>
<g id="a_node7"><a xlink:title=" ">
<polygon fill="#ffffff" stroke="#bfbfbf" points="370.5,-.5 370.5,-19.5 454.5,-19.5 454.5,-.5 370.5,-.5"/>
<text text-anchor="middle" x="412.5" y="-7.5" font-family="Helvetica,sans-Serif" font-size="10.00" fill="#000000">QElapsedTimer</text>
</a>
</g>
</g>
<!-- Node2&#45;&gt;Node7 -->
<g id="edge6" class="edge">
<title>Node2&#45;&gt;Node7</title>
<path fill="none" stroke="#191970" d="M223.4355,-56.4369C262.292,-46.8932 322.093,-32.2052 364.0089,-21.9101"/>
<polygon fill="#191970" stroke="#191970" points="364.8486,-25.308 373.7251,-19.5237 363.1788,-18.51 364.8486,-25.308"/>
</g>
</g>
</svg>
        <g id="navigator" transform="translate(0 0)" fill="#404254">
                <rect fill="#f2f5e9" fill-opacity="0.5" stroke="#606060" stroke-width=".5" x="0" y="0" width="60" height="60"/>
                <use id="zoomplus" xlink:href="#zoomPlus" x="17" y="9" onmousedown="handleZoom(evt,'in')"/>
                <use id="zoomminus" xlink:href="#zoomMin" x="42" y="9" onmousedown="handleZoom(evt,'out')"/>
                <use id="reset" xlink:href="#resetDef" x="30" y="36" onmousedown="handleReset()"/>
                <g id="arrowUp" xlink:href="#dirArrow" transform="translate(30 24)" onmousedown="handlePan(0,-1)">
                  <use xlink:href="#rim" fill="#404040">
                        <set attributeName="fill" to="#808080" begin="arrowUp.mouseover" end="arrowUp.mouseout"/>
                  </use>
                  <path fill="none" stroke="white" stroke-width="1.5" d="M0,-3.0v7 M-2.5,-0.5L0,-3.0L2.5,-0.5"/>
                </g>
                <g id="arrowRight" xlink:href="#dirArrow" transform="rotate(90) translate(36 -43)" onmousedown="handlePan(1,0)">
                  <use xlink:href="#rim" fill="#404040">
                        <set attributeName="fill" to="#808080" begin="arrowRight.mouseover" end="arrowRight.mouseout"/>
                  </use>
                  <path fill="none" stroke="white" stroke-width="1.5" d="M0,-3.0v7 M-2.5,-0.5L0,-3.0L2.5,-0.5"/>
                </g>
                <g id="arrowDown" xlink:href="#dirArrow" transform="rotate(180) translate(-30 -48)" onmousedown="handlePan(0,1)">
                  <use xlink:href="#rim" fill="#404040">
                        <set attributeName="fill" to="#808080" begin="arrowDown.mouseover" end="arrowDown.mouseout"/>
                  </use>
                  <path fill="none" stroke="white" stroke-width="1.5" d="M0,-3.0v7 M-2.5,-0.5L0,-3.0L2.5,-0.5"/>
                </g>
                <g id="arrowLeft" xlink:href="#dirArrow" transform="rotate(270) translate(-36 17)" onmousedown="handlePan(-1,0)">
                  <use xlink:href="#rim" fill="#404040">
                        <set attributeName="fill" to="#808080" begin="arrowLeft.mouseover" end="arrowLeft.mouseout"/>
                  </use>
                  <path fill="none" stroke="white" stroke-width="1.5" d="M0,-3.0v7 M-2.5,-0.5L0,-3.0L2.5,-0.5"/>
                </g>
        </g>
        <svg viewBox="0 0 15 15" width="100%" height="30px" preserveAspectRatio="xMaxYMin meet">
         <g id="arrow_out" transform="scale(0.3 0.3)">
          <a xlink:href="mainwindow_8cpp__incl_org.svg" target="_base">
           <rect id="button" ry="5" rx="5" y="6" x="6" height="38" width="38"
                fill="#f2f5e9" fill-opacity="0.5" stroke="#606060" stroke-width="1.0"/>
           <path id="arrow"
             d="M 11.500037,31.436501 C 11.940474,20.09759 22.043105,11.32322 32.158766,21.979434 L 37.068811,17.246167 C 37.068811,17.246167 37.088388,32 37.088388,32 L 22.160133,31.978069 C 22.160133,31.978069 26.997745,27.140456 26.997745,27.140456 C 18.528582,18.264221 13.291696,25.230495 11.500037,31.436501 z"
             style="fill:#404040;"/>
          </a>
         </g>
        </svg>
</svg>
