<?xml version="1.0" encoding="UTF-8" standalone="no"?>
<!DOCTYPE svg PUBLIC "-//W3C//DTD SVG 1.1//EN"
 "http://www.w3.org/Graphics/SVG/1.1/DTD/svg11.dtd">
<!-- Generated by graphviz version 2.40.1 (20161225.0304)
 -->
<!-- Title: /home/finlay/RTEP1/Server_end/0301_Pong_GUI/mainwindow.h Pages: 1 -->
<svg width="463pt" height="106pt"
 viewBox="0.00 0.00 462.50 106.00" xmlns="http://www.w3.org/2000/svg" xmlns:xlink="http://www.w3.org/1999/xlink">
<g id="graph0" class="graph" transform="scale(1 1) rotate(0) translate(4 102)">
<title>/home/finlay/RTEP1/Server_end/0301_Pong_GUI/mainwindow.h</title>
<polygon fill="#ffffff" stroke="transparent" points="-4,4 -4,-102 458.5,-102 458.5,4 -4,4"/>
<!-- Node1 -->
<g id="node1" class="node">
<title>Node1</title>
<g id="a_node1"><a xlink:title=" ">
<polygon fill="#bfbfbf" stroke="#000000" points="160,-56.5 160,-97.5 281,-97.5 281,-56.5 160,-56.5"/>
<text text-anchor="start" x="168" y="-85.5" font-family="Helvetica,sans-Serif" font-size="10.00" fill="#000000">/home/finlay/RTEP1</text>
<text text-anchor="start" x="168" y="-74.5" font-family="Helvetica,sans-Serif" font-size="10.00" fill="#000000">/Server_end/0301_Pong</text>
<text text-anchor="middle" x="220.5" y="-63.5" font-family="Helvetica,sans-Serif" font-size="10.00" fill="#000000">_GUI/mainwindow.h</text>
</a>
</g>
</g>
<!-- Node2 -->
<g id="node2" class="node">
<title>Node2</title>
<g id="a_node2"><a xlink:title=" ">
<polygon fill="#ffffff" stroke="#bfbfbf" points="0,-.5 0,-19.5 53,-19.5 53,-.5 0,-.5"/>
<text text-anchor="middle" x="26.5" y="-7.5" font-family="Helvetica,sans-Serif" font-size="10.00" fill="#000000">QObject</text>
</a>
</g>
</g>
<!-- Node1&#45;&gt;Node2 -->
<g id="edge1" class="edge">
<title>Node1&#45;&gt;Node2</title>
<path fill="none" stroke="#191970" d="M160.9752,-56.4425C128.934,-45.3767 90.4462,-32.0845 62.8709,-22.5611"/>
<polygon fill="#191970" stroke="#191970" points="63.8322,-19.1903 53.2374,-19.2341 61.547,-25.8068 63.8322,-19.1903"/>
</g>
<!-- Node3 -->
<g id="node3" class="node">
<title>Node3</title>
<g id="a_node3"><a xlink:title=" ">
<polygon fill="#ffffff" stroke="#bfbfbf" points="71,-.5 71,-19.5 162,-19.5 162,-.5 71,-.5"/>
<text text-anchor="middle" x="116.5" y="-7.5" font-family="Helvetica,sans-Serif" font-size="10.00" fill="#000000">QGraphicsScene</text>
</a>
</g>
</g>
<!-- Node1&#45;&gt;Node3 -->
<g id="edge2" class="edge">
<title>Node1&#45;&gt;Node3</title>
<path fill="none" stroke="#191970" d="M188.448,-56.3511C172.8791,-46.3212 154.4983,-34.4797 140.2123,-25.2762"/>
<polygon fill="#191970" stroke="#191970" points="141.7884,-22.1281 131.4863,-19.6546 137.9973,-28.0127 141.7884,-22.1281"/>
</g>
<!-- Node4 -->
<g id="node4" class="node">
<title>Node4</title>
<g id="a_node4"><a xlink:title=" ">
<polygon fill="#ffffff" stroke="#bfbfbf" points="180.5,-.5 180.5,-19.5 260.5,-19.5 260.5,-.5 180.5,-.5"/>
<text text-anchor="middle" x="220.5" y="-7.5" font-family="Helvetica,sans-Serif" font-size="10.00" fill="#000000">QMainWindow</text>
</a>
</g>
</g>
<!-- Node1&#45;&gt;Node4 -->
<g id="edge3" class="edge">
<title>Node1&#45;&gt;Node4</title>
<path fill="none" stroke="#191970" d="M220.5,-56.168C220.5,-47.8226 220.5,-38.2471 220.5,-29.9879"/>
<polygon fill="#191970" stroke="#191970" points="224.0001,-29.7804 220.5,-19.7805 217.0001,-29.7805 224.0001,-29.7804"/>
</g>
<!-- Node5 -->
<g id="node5" class="node">
<title>Node5</title>
<g id="a_node5"><a xlink:title=" ">
<polygon fill="#ffffff" stroke="#bfbfbf" points="279,-.5 279,-19.5 352,-19.5 352,-.5 279,-.5"/>
<text text-anchor="middle" x="315.5" y="-7.5" font-family="Helvetica,sans-Serif" font-size="10.00" fill="#000000">QUdpSocket</text>
</a>
</g>
</g>
<!-- Node1&#45;&gt;Node5 -->
<g id="edge4" class="edge">
<title>Node1&#45;&gt;Node5</title>
<path fill="none" stroke="#191970" d="M249.7783,-56.3511C263.8644,-46.4167 280.4704,-34.7051 293.4659,-25.5398"/>
<polygon fill="#191970" stroke="#191970" points="295.6557,-28.2784 301.8106,-19.6546 291.6213,-22.5579 295.6557,-28.2784"/>
</g>
<!-- Node6 -->
<g id="node6" class="node">
<title>Node6</title>
<g id="a_node6"><a xlink:title=" ">
<polygon fill="#ffffff" stroke="#bfbfbf" points="370.5,-.5 370.5,-19.5 454.5,-19.5 454.5,-.5 370.5,-.5"/>
<text text-anchor="middle" x="412.5" y="-7.5" font-family="Helvetica,sans-Serif" font-size="10.00" fill="#000000">QElapsedTimer</text>
</a>
</g>
</g>
<!-- Node1&#45;&gt;Node6 -->
<g id="edge5" class="edge">
<title>Node1&#45;&gt;Node6</title>
<path fill="none" stroke="#191970" d="M279.4111,-56.4425C310.8275,-45.4795 348.5061,-32.3312 375.7409,-22.8274"/>
<polygon fill="#191970" stroke="#191970" points="376.9828,-26.1011 385.2713,-19.5017 374.6765,-19.4919 376.9828,-26.1011"/>
</g>
</g>
</svg>
