<?xml version="1.0" encoding="UTF-8" standalone="no"?>
<!DOCTYPE svg PUBLIC "-//W3C//DTD SVG 1.1//EN"
 "http://www.w3.org/Graphics/SVG/1.1/DTD/svg11.dtd">
<!-- Generated by graphviz version 2.40.1 (20161225.0304)
 -->
<!-- Title: /home/finlay/RTEP1/Server_end/0301_Pong_GUI/mainwindow.h Pages: 1 -->
<svg width="268pt" height="128pt"
 viewBox="0.00 0.00 268.00 128.00" xmlns="http://www.w3.org/2000/svg" xmlns:xlink="http://www.w3.org/1999/xlink">
<g id="graph0" class="graph" transform="scale(1 1) rotate(0) translate(4 124)">
<title>/home/finlay/RTEP1/Server_end/0301_Pong_GUI/mainwindow.h</title>
<polygon fill="#ffffff" stroke="transparent" points="-4,4 -4,-124 264,-124 264,4 -4,4"/>
<!-- Node1 -->
<g id="node1" class="node">
<title>Node1</title>
<g id="a_node1"><a xlink:title=" ">
<polygon fill="#bfbfbf" stroke="#000000" points="69,-78.5 69,-119.5 190,-119.5 190,-78.5 69,-78.5"/>
<text text-anchor="start" x="77" y="-107.5" font-family="Helvetica,sans-Serif" font-size="10.00" fill="#000000">/home/finlay/RTEP1</text>
<text text-anchor="start" x="77" y="-96.5" font-family="Helvetica,sans-Serif" font-size="10.00" fill="#000000">/Server_end/0301_Pong</text>
<text text-anchor="middle" x="129.5" y="-85.5" font-family="Helvetica,sans-Serif" font-size="10.00" fill="#000000">_GUI/mainwindow.h</text>
</a>
</g>
</g>
<!-- Node2 -->
<g id="node2" class="node">
<title>Node2</title>
<g id="a_node2"><a xlink:href="_server__end_20301___pong___g_u_i_2main_8cpp.html" target="_top" xlink:title=" ">
<polygon fill="#ffffff" stroke="#000000" points="0,-.5 0,-41.5 121,-41.5 121,-.5 0,-.5"/>
<text text-anchor="start" x="8" y="-29.5" font-family="Helvetica,sans-Serif" font-size="10.00" fill="#000000">/home/finlay/RTEP1</text>
<text text-anchor="start" x="8" y="-18.5" font-family="Helvetica,sans-Serif" font-size="10.00" fill="#000000">/Server_end/0301_Pong</text>
<text text-anchor="middle" x="60.5" y="-7.5" font-family="Helvetica,sans-Serif" font-size="10.00" fill="#000000">_GUI/main.cpp</text>
</a>
</g>
</g>
<!-- Node1&#45;&gt;Node2 -->
<g id="edge1" class="edge">
<title>Node1&#45;&gt;Node2</title>
<path fill="none" stroke="#191970" d="M104.1787,-70.376C95.7699,-60.8703 86.5765,-50.4778 78.8025,-41.6898"/>
<polygon fill="#191970" stroke="#191970" points="101.762,-72.9265 111.0093,-78.0974 107.005,-68.2884 101.762,-72.9265"/>
</g>
<!-- Node3 -->
<g id="node3" class="node">
<title>Node3</title>
<g id="a_node3"><a xlink:href="mainwindow_8cpp.html" target="_top" xlink:title=" ">
<polygon fill="#ffffff" stroke="#000000" points="139,-.5 139,-41.5 260,-41.5 260,-.5 139,-.5"/>
<text text-anchor="start" x="147" y="-29.5" font-family="Helvetica,sans-Serif" font-size="10.00" fill="#000000">/home/finlay/RTEP1</text>
<text text-anchor="start" x="147" y="-18.5" font-family="Helvetica,sans-Serif" font-size="10.00" fill="#000000">/Server_end/0301_Pong</text>
<text text-anchor="middle" x="199.5" y="-7.5" font-family="Helvetica,sans-Serif" font-size="10.00" fill="#000000">_GUI/mainwindow.cpp</text>
</a>
</g>
</g>
<!-- Node1&#45;&gt;Node3 -->
<g id="edge2" class="edge">
<title>Node1&#45;&gt;Node3</title>
<path fill="none" stroke="#191970" d="M155.1882,-70.376C163.719,-60.8703 173.0456,-50.4778 180.9322,-41.6898"/>
<polygon fill="#191970" stroke="#191970" points="152.333,-68.3173 148.2587,-78.0974 157.5427,-72.9927 152.333,-68.3173"/>
</g>
</g>
</svg>
