<?xml version="1.0" encoding="UTF-8" standalone="no"?>
<!DOCTYPE svg PUBLIC "-//W3C//DTD SVG 1.1//EN"
 "http://www.w3.org/Graphics/SVG/1.1/DTD/svg11.dtd">
<!-- Generated by graphviz version 2.40.1 (20161225.0304)
 -->
<!-- Title: /home/finlay/RTEP1/Rpi_end/200322_Rpi_end_together/window.cpp Pages: 1 -->
<svg width="1036pt" height="274pt"
 viewBox="0.00 0.00 1036.00 274.00" xmlns="http://www.w3.org/2000/svg" xmlns:xlink="http://www.w3.org/1999/xlink">
<g id="graph0" class="graph" transform="scale(1 1) rotate(0) translate(4 270)">
<title>/home/finlay/RTEP1/Rpi_end/200322_Rpi_end_together/window.cpp</title>
<polygon fill="#ffffff" stroke="transparent" points="-4,4 -4,-270 1031.9953,-270 1031.9953,4 -4,4"/>
<!-- Node1 -->
<g id="node1" class="node">
<title>Node1</title>
<g id="a_node1"><a xlink:title=" ">
<polygon fill="#bfbfbf" stroke="#000000" points="296.5,-224.5 296.5,-265.5 429.5,-265.5 429.5,-224.5 296.5,-224.5"/>
<text text-anchor="start" x="304.5" y="-253.5" font-family="Helvetica,sans-Serif" font-size="10.00" fill="#000000">/home/finlay/RTEP1</text>
<text text-anchor="start" x="304.5" y="-242.5" font-family="Helvetica,sans-Serif" font-size="10.00" fill="#000000">/Rpi_end/200322_Rpi</text>
<text text-anchor="middle" x="363" y="-231.5" font-family="Helvetica,sans-Serif" font-size="10.00" fill="#000000">_end_together/window.cpp</text>
</a>
</g>
</g>
<!-- Node2 -->
<g id="node2" class="node">
<title>Node2</title>
<g id="a_node2"><a xlink:title=" ">
<polygon fill="#ffffff" stroke="#bfbfbf" points="0,-168.5 0,-187.5 44,-187.5 44,-168.5 0,-168.5"/>
<text text-anchor="middle" x="22" y="-175.5" font-family="Helvetica,sans-Serif" font-size="10.00" fill="#000000">cmath</text>
</a>
</g>
</g>
<!-- Node1&#45;&gt;Node2 -->
<g id="edge1" class="edge">
<title>Node1&#45;&gt;Node2</title>
<path fill="none" stroke="#191970" d="M296.318,-234.2413C234.2965,-223.8323 139.4688,-206.8907 58,-188 56.7204,-187.7033 55.418,-187.391 54.1044,-187.0673"/>
<polygon fill="#191970" stroke="#191970" points="54.5671,-183.5711 44.0077,-184.4369 52.8023,-190.345 54.5671,-183.5711"/>
</g>
<!-- Node3 -->
<g id="node3" class="node">
<title>Node3</title>
<g id="a_node3"><a xlink:title=" ">
<polygon fill="#ffffff" stroke="#bfbfbf" points="432.5,-.5 432.5,-19.5 485.5,-19.5 485.5,-.5 432.5,-.5"/>
<text text-anchor="middle" x="459" y="-7.5" font-family="Helvetica,sans-Serif" font-size="10.00" fill="#000000">QObject</text>
</a>
</g>
</g>
<!-- Node1&#45;&gt;Node3 -->
<g id="edge2" class="edge">
<title>Node1&#45;&gt;Node3</title>
<path fill="none" stroke="#191970" d="M296.2615,-237.5696C198.1306,-223.9169 32.5302,-188.8806 91,-112 131.549,-58.6831 337.3707,-25.9845 422.287,-14.5741"/>
<polygon fill="#191970" stroke="#191970" points="422.8046,-18.0362 432.2605,-13.2575 421.8885,-11.0964 422.8046,-18.0362"/>
</g>
<!-- Node4 -->
<g id="node4" class="node">
<title>Node4</title>
<g id="a_node4"><a xlink:title=" ">
<polygon fill="#ffffff" stroke="#bfbfbf" points="100.5,-112.5 100.5,-131.5 133.5,-131.5 133.5,-112.5 100.5,-112.5"/>
<text text-anchor="middle" x="117" y="-119.5" font-family="Helvetica,sans-Serif" font-size="10.00" fill="#000000">Iir.h</text>
</a>
</g>
</g>
<!-- Node1&#45;&gt;Node4 -->
<g id="edge3" class="edge">
<title>Node1&#45;&gt;Node4</title>
<path fill="none" stroke="#191970" d="M321.8251,-224.4126C270.814,-198.907 185.4393,-156.2196 142.829,-134.9145"/>
<polygon fill="#191970" stroke="#191970" points="144.1961,-131.685 133.6866,-130.3433 141.0656,-137.946 144.1961,-131.685"/>
</g>
<!-- Node5 -->
<g id="node5" class="node">
<title>Node5</title>
<g id="a_node5"><a xlink:title=" ">
<polygon fill="#ffffff" stroke="#bfbfbf" points="308,-168.5 308,-187.5 354,-187.5 354,-168.5 308,-168.5"/>
<text text-anchor="middle" x="331" y="-175.5" font-family="Helvetica,sans-Serif" font-size="10.00" fill="#000000">stdio.h</text>
</a>
</g>
</g>
<!-- Node1&#45;&gt;Node5 -->
<g id="edge4" class="edge">
<title>Node1&#45;&gt;Node5</title>
<path fill="none" stroke="#191970" d="M353.0504,-224.168C348.8833,-215.4433 344.0742,-205.374 340.0126,-196.87"/>
<polygon fill="#191970" stroke="#191970" points="343.1394,-195.2957 335.6713,-187.7805 336.8228,-198.3125 343.1394,-195.2957"/>
</g>
<!-- Node6 -->
<g id="node6" class="node">
<title>Node6</title>
<g id="a_node6"><a xlink:title=" ">
<polygon fill="#ffffff" stroke="#bfbfbf" points="372,-168.5 372,-187.5 420,-187.5 420,-168.5 372,-168.5"/>
<text text-anchor="middle" x="396" y="-175.5" font-family="Helvetica,sans-Serif" font-size="10.00" fill="#000000">stdlib.h</text>
</a>
</g>
</g>
<!-- Node1&#45;&gt;Node6 -->
<g id="edge5" class="edge">
<title>Node1&#45;&gt;Node6</title>
<path fill="none" stroke="#191970" d="M373.2605,-224.168C377.5578,-215.4433 382.5173,-205.374 386.7058,-196.87"/>
<polygon fill="#191970" stroke="#191970" points="389.904,-198.2979 391.1828,-187.7805 383.6244,-195.2049 389.904,-198.2979"/>
</g>
<!-- Node7 -->
<g id="node7" class="node">
<title>Node7</title>
<g id="a_node7"><a xlink:href="window_8h.html" target="_top" xlink:title=" ">
<polygon fill="#ffffff" stroke="#000000" points="547,-168.5 547,-187.5 605,-187.5 605,-168.5 547,-168.5"/>
<text text-anchor="middle" x="576" y="-175.5" font-family="Helvetica,sans-Serif" font-size="10.00" fill="#000000">window.h</text>
</a>
</g>
</g>
<!-- Node1&#45;&gt;Node7 -->
<g id="edge6" class="edge">
<title>Node1&#45;&gt;Node7</title>
<path fill="none" stroke="#191970" d="M428.3546,-224.4425C463.9523,-213.245 506.7974,-199.768 537.1423,-190.2228"/>
<polygon fill="#191970" stroke="#191970" points="538.4365,-193.4849 546.9255,-187.1455 536.336,-186.8074 538.4365,-193.4849"/>
</g>
<!-- Node16 -->
<g id="node16" class="node">
<title>Node16</title>
<g id="a_node16"><a xlink:href="ads1115_8h.html" target="_top" xlink:title="Defines a set of macros for use in configuring the ADS1115 and a class for controlling the configured...">
<polygon fill="#ffffff" stroke="#000000" points="924,-56.5 924,-75.5 986,-75.5 986,-56.5 924,-56.5"/>
<text text-anchor="middle" x="955" y="-63.5" font-family="Helvetica,sans-Serif" font-size="10.00" fill="#000000">ads1115.h</text>
</a>
</g>
</g>
<!-- Node1&#45;&gt;Node16 -->
<g id="edge22" class="edge">
<title>Node1&#45;&gt;Node16</title>
<path fill="none" stroke="#191970" d="M429.5169,-238.4812C589.4321,-222.1383 985.058,-177.4625 1023,-132 1039.0774,-112.7358 1011.8626,-92.9997 987.233,-80.1916"/>
<polygon fill="#191970" stroke="#191970" points="988.5315,-76.9293 978.0157,-75.6374 985.4306,-83.205 988.5315,-76.9293"/>
</g>
<!-- Node19 -->
<g id="node19" class="node">
<title>Node19</title>
<g id="a_node19"><a xlink:href="_g_p_i_olis_8h.html" target="_top" xlink:title="Threading and interrupts.">
<polygon fill="#ffffff" stroke="#000000" points="954.5,-112.5 954.5,-131.5 1013.5,-131.5 1013.5,-112.5 954.5,-112.5"/>
<text text-anchor="middle" x="984" y="-119.5" font-family="Helvetica,sans-Serif" font-size="10.00" fill="#000000">GPIOlis.h</text>
</a>
</g>
</g>
<!-- Node1&#45;&gt;Node19 -->
<g id="edge23" class="edge">
<title>Node1&#45;&gt;Node19</title>
<path fill="none" stroke="#191970" d="M429.7526,-231.7785C559.0736,-206.1642 840.1746,-150.4872 944.2243,-129.8783"/>
<polygon fill="#191970" stroke="#191970" points="945.1754,-133.258 954.3048,-127.8817 943.8153,-126.3914 945.1754,-133.258"/>
</g>
<!-- Node7&#45;&gt;Node4 -->
<g id="edge15" class="edge">
<title>Node7&#45;&gt;Node4</title>
<path fill="none" stroke="#191970" d="M546.7789,-175.9544C465.4224,-170.0989 236.6691,-152.5052 143.6146,-131.7675"/>
<polygon fill="#191970" stroke="#191970" points="144.2745,-128.327 133.7365,-129.4225 142.6577,-135.1377 144.2745,-128.327"/>
</g>
<!-- Node8 -->
<g id="node8" class="node">
<title>Node8</title>
<g id="a_node8"><a xlink:title=" ">
<polygon fill="#ffffff" stroke="#bfbfbf" points="151.5,-112.5 151.5,-131.5 246.5,-131.5 246.5,-112.5 151.5,-112.5"/>
<text text-anchor="middle" x="199" y="-119.5" font-family="Helvetica,sans-Serif" font-size="10.00" fill="#000000">qwt/qwt_thermo.h</text>
</a>
</g>
</g>
<!-- Node7&#45;&gt;Node8 -->
<g id="edge7" class="edge">
<title>Node7&#45;&gt;Node8</title>
<path fill="none" stroke="#191970" d="M546.8341,-174.1146C492.1244,-166.7602 370.1392,-150.0498 256.4821,-132.0365"/>
<polygon fill="#191970" stroke="#191970" points="256.9932,-128.5739 246.5673,-130.4584 255.8928,-135.4869 256.9932,-128.5739"/>
</g>
<!-- Node9 -->
<g id="node9" class="node">
<title>Node9</title>
<g id="a_node9"><a xlink:title=" ">
<polygon fill="#ffffff" stroke="#bfbfbf" points="265,-112.5 265,-131.5 351,-131.5 351,-112.5 265,-112.5"/>
<text text-anchor="middle" x="308" y="-119.5" font-family="Helvetica,sans-Serif" font-size="10.00" fill="#000000">qwt/qwt_knob.h</text>
</a>
</g>
</g>
<!-- Node7&#45;&gt;Node9 -->
<g id="edge8" class="edge">
<title>Node7&#45;&gt;Node9</title>
<path fill="none" stroke="#191970" d="M546.8091,-171.9004C502.3645,-162.6135 417.0227,-144.7809 361.3175,-133.141"/>
<polygon fill="#191970" stroke="#191970" points="361.782,-129.6625 351.2775,-131.0431 360.3502,-136.5145 361.782,-129.6625"/>
</g>
<!-- Node10 -->
<g id="node10" class="node">
<title>Node10</title>
<g id="a_node10"><a xlink:title=" ">
<polygon fill="#ffffff" stroke="#bfbfbf" points="369,-112.5 369,-131.5 449,-131.5 449,-112.5 369,-112.5"/>
<text text-anchor="middle" x="409" y="-119.5" font-family="Helvetica,sans-Serif" font-size="10.00" fill="#000000">qwt/qwt_plot.h</text>
</a>
</g>
</g>
<!-- Node7&#45;&gt;Node10 -->
<g id="edge9" class="edge">
<title>Node7&#45;&gt;Node10</title>
<path fill="none" stroke="#191970" d="M547.2917,-168.3733C519.6423,-159.1016 477.6424,-145.0178 447.1834,-134.804"/>
<polygon fill="#191970" stroke="#191970" points="447.9276,-131.3621 437.3337,-131.5011 445.7021,-137.9989 447.9276,-131.3621"/>
</g>
<!-- Node11 -->
<g id="node11" class="node">
<title>Node11</title>
<g id="a_node11"><a xlink:title=" ">
<polygon fill="#ffffff" stroke="#bfbfbf" points="467,-112.5 467,-131.5 577,-131.5 577,-112.5 467,-112.5"/>
<text text-anchor="middle" x="522" y="-119.5" font-family="Helvetica,sans-Serif" font-size="10.00" fill="#000000">qwt/qwt_plot_curve.h</text>
</a>
</g>
</g>
<!-- Node7&#45;&gt;Node11 -->
<g id="edge10" class="edge">
<title>Node7&#45;&gt;Node11</title>
<path fill="none" stroke="#191970" d="M566.5939,-168.2455C558.8507,-160.2155 547.688,-148.6394 538.4682,-139.0781"/>
<polygon fill="#191970" stroke="#191970" points="540.7591,-136.4117 531.2983,-131.6427 535.7202,-141.2706 540.7591,-136.4117"/>
</g>
<!-- Node12 -->
<g id="node12" class="node">
<title>Node12</title>
<g id="a_node12"><a xlink:title=" ">
<polygon fill="#ffffff" stroke="#bfbfbf" points="595.5,-112.5 595.5,-131.5 666.5,-131.5 666.5,-112.5 595.5,-112.5"/>
<text text-anchor="middle" x="631" y="-119.5" font-family="Helvetica,sans-Serif" font-size="10.00" fill="#000000">QBoxLayout</text>
</a>
</g>
</g>
<!-- Node7&#45;&gt;Node12 -->
<g id="edge11" class="edge">
<title>Node7&#45;&gt;Node12</title>
<path fill="none" stroke="#191970" d="M585.5803,-168.2455C593.5458,-160.1352 605.0641,-148.4075 614.5079,-138.7919"/>
<polygon fill="#191970" stroke="#191970" points="617.0195,-141.2297 621.5295,-131.6427 612.0253,-136.3247 617.0195,-141.2297"/>
</g>
<!-- Node13 -->
<g id="node13" class="node">
<title>Node13</title>
<g id="a_node13"><a xlink:title=" ">
<polygon fill="#ffffff" stroke="#bfbfbf" points="684.5,-112.5 684.5,-131.5 757.5,-131.5 757.5,-112.5 684.5,-112.5"/>
<text text-anchor="middle" x="721" y="-119.5" font-family="Helvetica,sans-Serif" font-size="10.00" fill="#000000">QUdpSocket</text>
</a>
</g>
</g>
<!-- Node7&#45;&gt;Node13 -->
<g id="edge12" class="edge">
<title>Node7&#45;&gt;Node13</title>
<path fill="none" stroke="#191970" d="M600.9264,-168.3733C624.6202,-159.2226 660.4511,-145.3844 686.8068,-135.2057"/>
<polygon fill="#191970" stroke="#191970" points="688.3314,-138.3689 696.3989,-131.5011 685.8094,-131.8389 688.3314,-138.3689"/>
</g>
<!-- Node14 -->
<g id="node14" class="node">
<title>Node14</title>
<g id="a_node14"><a xlink:title=" ">
<polygon fill="#ffffff" stroke="#bfbfbf" points="775.5,-112.5 775.5,-131.5 824.5,-131.5 824.5,-112.5 775.5,-112.5"/>
<text text-anchor="middle" x="800" y="-119.5" font-family="Helvetica,sans-Serif" font-size="10.00" fill="#000000">QTimer</text>
</a>
</g>
</g>
<!-- Node7&#45;&gt;Node14 -->
<g id="edge13" class="edge">
<title>Node7&#45;&gt;Node14</title>
<path fill="none" stroke="#191970" d="M605.2565,-171.5079C640.9414,-163.4691 703.3083,-149.0335 765.2455,-132.3809"/>
<polygon fill="#191970" stroke="#191970" points="766.4414,-135.6832 775.1782,-129.6899 764.6109,-128.9267 766.4414,-135.6832"/>
</g>
<!-- Node15 -->
<g id="node15" class="node">
<title>Node15</title>
<g id="a_node15"><a xlink:title=" ">
<polygon fill="#ffffff" stroke="#bfbfbf" points="842.5,-112.5 842.5,-131.5 897.5,-131.5 897.5,-112.5 842.5,-112.5"/>
<text text-anchor="middle" x="870" y="-119.5" font-family="Helvetica,sans-Serif" font-size="10.00" fill="#000000">QWidget</text>
</a>
</g>
</g>
<!-- Node7&#45;&gt;Node15 -->
<g id="edge14" class="edge">
<title>Node7&#45;&gt;Node15</title>
<path fill="none" stroke="#191970" d="M605.1992,-173.7153C651.473,-166.7267 744.652,-151.849 832.3243,-132.239"/>
<polygon fill="#191970" stroke="#191970" points="833.1771,-135.6346 842.1581,-130.0139 831.6322,-128.8072 833.1771,-135.6346"/>
</g>
<!-- Node7&#45;&gt;Node16 -->
<g id="edge16" class="edge">
<title>Node7&#45;&gt;Node16</title>
<path fill="none" stroke="#191970" d="M605.1402,-176.8435C676.1921,-173.5717 856.2439,-162.4277 907,-132 925.3417,-121.0043 938.741,-100.0313 946.6499,-84.6686"/>
<polygon fill="#191970" stroke="#191970" points="949.8588,-86.0721 951.0511,-75.5446 943.554,-83.0308 949.8588,-86.0721"/>
</g>
<!-- Node7&#45;&gt;Node19 -->
<g id="edge20" class="edge">
<title>Node7&#45;&gt;Node19</title>
<path fill="none" stroke="#191970" d="M605.3992,-175.2696C667.4865,-169.2874 816.4244,-153.7972 940,-132 941.4465,-131.7449 942.9171,-131.4734 944.4006,-131.1895"/>
<polygon fill="#191970" stroke="#191970" points="945.1619,-134.6064 954.2579,-129.1738 943.7594,-127.7483 945.1619,-134.6064"/>
</g>
<!-- Node16&#45;&gt;Node3 -->
<g id="edge17" class="edge">
<title>Node16&#45;&gt;Node3</title>
<path fill="none" stroke="#191970" d="M923.973,-62.4969C836.7741,-52.6519 589.7774,-24.7652 495.8612,-14.1618"/>
<polygon fill="#191970" stroke="#191970" points="496.0324,-10.6589 485.7028,-13.0148 495.247,-17.6147 496.0324,-10.6589"/>
</g>
<!-- Node17 -->
<g id="node17" class="node">
<title>Node17</title>
<g id="a_node17"><a xlink:title=" ">
<polygon fill="#ffffff" stroke="#bfbfbf" points="895,-.5 895,-19.5 949,-19.5 949,-.5 895,-.5"/>
<text text-anchor="middle" x="922" y="-7.5" font-family="Helvetica,sans-Serif" font-size="10.00" fill="#000000">iostream</text>
</a>
</g>
</g>
<!-- Node16&#45;&gt;Node17 -->
<g id="edge18" class="edge">
<title>Node16&#45;&gt;Node17</title>
<path fill="none" stroke="#191970" d="M949.2518,-56.2455C944.7565,-48.617 938.3752,-37.7881 932.9175,-28.5267"/>
<polygon fill="#191970" stroke="#191970" points="935.7747,-26.4811 927.6823,-19.6427 929.7439,-30.035 935.7747,-26.4811"/>
</g>
<!-- Node18 -->
<g id="node18" class="node">
<title>Node18</title>
<g id="a_node18"><a xlink:title=" ">
<polygon fill="#ffffff" stroke="#bfbfbf" points="967.5,-.5 967.5,-19.5 1008.5,-19.5 1008.5,-.5 967.5,-.5"/>
<text text-anchor="middle" x="988" y="-7.5" font-family="Helvetica,sans-Serif" font-size="10.00" fill="#000000">string</text>
</a>
</g>
</g>
<!-- Node16&#45;&gt;Node18 -->
<g id="edge19" class="edge">
<title>Node16&#45;&gt;Node18</title>
<path fill="none" stroke="#191970" d="M960.7482,-56.2455C965.2435,-48.617 971.6248,-37.7881 977.0825,-28.5267"/>
<polygon fill="#191970" stroke="#191970" points="980.2561,-30.035 982.3177,-19.6427 974.2253,-26.4811 980.2561,-30.035"/>
</g>
<!-- Node19&#45;&gt;Node16 -->
<g id="edge21" class="edge">
<title>Node19&#45;&gt;Node16</title>
<path fill="none" stroke="#191970" d="M978.9486,-112.2455C974.9981,-104.617 969.3903,-93.7881 964.5942,-84.5267"/>
<polygon fill="#191970" stroke="#191970" points="967.7001,-82.9131 959.9935,-75.6427 961.4841,-86.1321 967.7001,-82.9131"/>
</g>
</g>
</svg>
