<?xml version="1.0" encoding="UTF-8" standalone="no"?>
<!DOCTYPE svg PUBLIC "-//W3C//DTD SVG 1.1//EN"
 "http://www.w3.org/Graphics/SVG/1.1/DTD/svg11.dtd">
<!-- Generated by graphviz version 2.40.1 (20161225.0304)
 -->
<!-- Title: /home/finlay/RTEP1/Rpi_end/200322_Rpi_end_together/window.h Pages: 1 -->
<svg width="949pt" height="218pt"
 viewBox="0.00 0.00 949.00 218.00" xmlns="http://www.w3.org/2000/svg" xmlns:xlink="http://www.w3.org/1999/xlink">
<g id="graph0" class="graph" transform="scale(1 1) rotate(0) translate(4 214)">
<title>/home/finlay/RTEP1/Rpi_end/200322_Rpi_end_together/window.h</title>
<polygon fill="#ffffff" stroke="transparent" points="-4,4 -4,-214 945,-214 945,4 -4,4"/>
<!-- Node1 -->
<g id="node1" class="node">
<title>Node1</title>
<g id="a_node1"><a xlink:title=" ">
<polygon fill="#bfbfbf" stroke="#000000" points="508.5,-168.5 508.5,-209.5 630.5,-209.5 630.5,-168.5 508.5,-168.5"/>
<text text-anchor="start" x="516.5" y="-197.5" font-family="Helvetica,sans-Serif" font-size="10.00" fill="#000000">/home/finlay/RTEP1</text>
<text text-anchor="start" x="516.5" y="-186.5" font-family="Helvetica,sans-Serif" font-size="10.00" fill="#000000">/Rpi_end/200322_Rpi</text>
<text text-anchor="middle" x="569.5" y="-175.5" font-family="Helvetica,sans-Serif" font-size="10.00" fill="#000000">_end_together/window.h</text>
</a>
</g>
</g>
<!-- Node2 -->
<g id="node2" class="node">
<title>Node2</title>
<g id="a_node2"><a xlink:title=" ">
<polygon fill="#ffffff" stroke="#bfbfbf" points="0,-112.5 0,-131.5 95,-131.5 95,-112.5 0,-112.5"/>
<text text-anchor="middle" x="47.5" y="-119.5" font-family="Helvetica,sans-Serif" font-size="10.00" fill="#000000">qwt/qwt_thermo.h</text>
</a>
</g>
</g>
<!-- Node1&#45;&gt;Node2 -->
<g id="edge1" class="edge">
<title>Node1&#45;&gt;Node2</title>
<path fill="none" stroke="#191970" d="M508.4302,-182.5325C421.3283,-173.0822 256.1905,-154.3304 104.9938,-132.008"/>
<polygon fill="#191970" stroke="#191970" points="105.4615,-128.5391 95.0559,-130.5325 104.4334,-135.4632 105.4615,-128.5391"/>
</g>
<!-- Node3 -->
<g id="node3" class="node">
<title>Node3</title>
<g id="a_node3"><a xlink:title=" ">
<polygon fill="#ffffff" stroke="#bfbfbf" points="113.5,-112.5 113.5,-131.5 199.5,-131.5 199.5,-112.5 113.5,-112.5"/>
<text text-anchor="middle" x="156.5" y="-119.5" font-family="Helvetica,sans-Serif" font-size="10.00" fill="#000000">qwt/qwt_knob.h</text>
</a>
</g>
</g>
<!-- Node1&#45;&gt;Node3 -->
<g id="edge2" class="edge">
<title>Node1&#45;&gt;Node3</title>
<path fill="none" stroke="#191970" d="M508.3974,-179.9881C438.6277,-169.5551 320.8112,-151.5041 209.6546,-132.16"/>
<polygon fill="#191970" stroke="#191970" points="210.063,-128.6785 199.6098,-130.4052 208.8583,-135.574 210.063,-128.6785"/>
</g>
<!-- Node4 -->
<g id="node4" class="node">
<title>Node4</title>
<g id="a_node4"><a xlink:title=" ">
<polygon fill="#ffffff" stroke="#bfbfbf" points="217.5,-112.5 217.5,-131.5 297.5,-131.5 297.5,-112.5 217.5,-112.5"/>
<text text-anchor="middle" x="257.5" y="-119.5" font-family="Helvetica,sans-Serif" font-size="10.00" fill="#000000">qwt/qwt_plot.h</text>
</a>
</g>
</g>
<!-- Node1&#45;&gt;Node4 -->
<g id="edge3" class="edge">
<title>Node1&#45;&gt;Node4</title>
<path fill="none" stroke="#191970" d="M508.2311,-175.8429C449.5903,-163.2502 362.2077,-144.4853 307.6067,-132.7601"/>
<polygon fill="#191970" stroke="#191970" points="308.3193,-129.3334 297.8073,-130.6557 306.8495,-136.1774 308.3193,-129.3334"/>
</g>
<!-- Node5 -->
<g id="node5" class="node">
<title>Node5</title>
<g id="a_node5"><a xlink:title=" ">
<polygon fill="#ffffff" stroke="#bfbfbf" points="315.5,-112.5 315.5,-131.5 425.5,-131.5 425.5,-112.5 315.5,-112.5"/>
<text text-anchor="middle" x="370.5" y="-119.5" font-family="Helvetica,sans-Serif" font-size="10.00" fill="#000000">qwt/qwt_plot_curve.h</text>
</a>
</g>
</g>
<!-- Node1&#45;&gt;Node5 -->
<g id="edge4" class="edge">
<title>Node1&#45;&gt;Node5</title>
<path fill="none" stroke="#191970" d="M508.441,-168.4425C475.7365,-157.4314 436.4844,-144.2158 408.2285,-134.7026"/>
<polygon fill="#191970" stroke="#191970" points="409.3155,-131.3755 398.7214,-131.5017 407.0819,-138.0096 409.3155,-131.3755"/>
</g>
<!-- Node6 -->
<g id="node6" class="node">
<title>Node6</title>
<g id="a_node6"><a xlink:title=" ">
<polygon fill="#ffffff" stroke="#bfbfbf" points="444,-112.5 444,-131.5 515,-131.5 515,-112.5 444,-112.5"/>
<text text-anchor="middle" x="479.5" y="-119.5" font-family="Helvetica,sans-Serif" font-size="10.00" fill="#000000">QBoxLayout</text>
</a>
</g>
</g>
<!-- Node1&#45;&gt;Node6 -->
<g id="edge5" class="edge">
<title>Node1&#45;&gt;Node6</title>
<path fill="none" stroke="#191970" d="M541.5168,-168.168C528.3956,-158.4001 513.0108,-146.9469 500.8472,-137.8918"/>
<polygon fill="#191970" stroke="#191970" points="502.7493,-134.9445 492.6379,-131.7805 498.5693,-140.5594 502.7493,-134.9445"/>
</g>
<!-- Node7 -->
<g id="node7" class="node">
<title>Node7</title>
<g id="a_node7"><a xlink:title=" ">
<polygon fill="#ffffff" stroke="#bfbfbf" points="533,-112.5 533,-131.5 606,-131.5 606,-112.5 533,-112.5"/>
<text text-anchor="middle" x="569.5" y="-119.5" font-family="Helvetica,sans-Serif" font-size="10.00" fill="#000000">QUdpSocket</text>
</a>
</g>
</g>
<!-- Node1&#45;&gt;Node7 -->
<g id="edge6" class="edge">
<title>Node1&#45;&gt;Node7</title>
<path fill="none" stroke="#191970" d="M569.5,-168.168C569.5,-159.8226 569.5,-150.2471 569.5,-141.9879"/>
<polygon fill="#191970" stroke="#191970" points="573.0001,-141.7804 569.5,-131.7805 566.0001,-141.7805 573.0001,-141.7804"/>
</g>
<!-- Node8 -->
<g id="node8" class="node">
<title>Node8</title>
<g id="a_node8"><a xlink:title=" ">
<polygon fill="#ffffff" stroke="#bfbfbf" points="624,-112.5 624,-131.5 673,-131.5 673,-112.5 624,-112.5"/>
<text text-anchor="middle" x="648.5" y="-119.5" font-family="Helvetica,sans-Serif" font-size="10.00" fill="#000000">QTimer</text>
</a>
</g>
</g>
<!-- Node1&#45;&gt;Node8 -->
<g id="edge7" class="edge">
<title>Node1&#45;&gt;Node8</title>
<path fill="none" stroke="#191970" d="M594.063,-168.168C605.3569,-158.5897 618.5613,-147.3911 629.1368,-138.422"/>
<polygon fill="#191970" stroke="#191970" points="631.6051,-140.9179 636.9678,-131.7805 627.0774,-135.5793 631.6051,-140.9179"/>
</g>
<!-- Node9 -->
<g id="node9" class="node">
<title>Node9</title>
<g id="a_node9"><a xlink:title=" ">
<polygon fill="#ffffff" stroke="#bfbfbf" points="691,-112.5 691,-131.5 746,-131.5 746,-112.5 691,-112.5"/>
<text text-anchor="middle" x="718.5" y="-119.5" font-family="Helvetica,sans-Serif" font-size="10.00" fill="#000000">QWidget</text>
</a>
</g>
</g>
<!-- Node1&#45;&gt;Node9 -->
<g id="edge8" class="edge">
<title>Node1&#45;&gt;Node9</title>
<path fill="none" stroke="#191970" d="M615.4207,-168.3511C638.8945,-157.7958 666.83,-145.2342 687.6942,-135.8523"/>
<polygon fill="#191970" stroke="#191970" points="689.3443,-138.9479 697.0292,-131.6546 686.4735,-132.5637 689.3443,-138.9479"/>
</g>
<!-- Node10 -->
<g id="node10" class="node">
<title>Node10</title>
<g id="a_node10"><a xlink:title=" ">
<polygon fill="#ffffff" stroke="#bfbfbf" points="764,-112.5 764,-131.5 797,-131.5 797,-112.5 764,-112.5"/>
<text text-anchor="middle" x="780.5" y="-119.5" font-family="Helvetica,sans-Serif" font-size="10.00" fill="#000000">Iir.h</text>
</a>
</g>
</g>
<!-- Node1&#45;&gt;Node10 -->
<g id="edge9" class="edge">
<title>Node1&#45;&gt;Node10</title>
<path fill="none" stroke="#191970" d="M630.6494,-171.6533C664.7863,-161.6468 708.222,-148.3847 754.332,-132.2417"/>
<polygon fill="#191970" stroke="#191970" points="755.6337,-135.4939 763.898,-128.8643 753.3032,-128.8932 755.6337,-135.4939"/>
</g>
<!-- Node11 -->
<g id="node11" class="node">
<title>Node11</title>
<g id="a_node11"><a xlink:href="ads1115_8h.html" target="_top" xlink:title="Defines a set of macros for use in configuring the ADS1115 and a class for controlling the configured...">
<polygon fill="#ffffff" stroke="#000000" points="823.5,-56.5 823.5,-75.5 885.5,-75.5 885.5,-56.5 823.5,-56.5"/>
<text text-anchor="middle" x="854.5" y="-63.5" font-family="Helvetica,sans-Serif" font-size="10.00" fill="#000000">ads1115.h</text>
</a>
</g>
</g>
<!-- Node1&#45;&gt;Node11 -->
<g id="edge10" class="edge">
<title>Node1&#45;&gt;Node11</title>
<path fill="none" stroke="#191970" d="M630.6464,-179.2424C690.9311,-168.7556 778.0418,-151.0137 806.5,-132 824.0882,-120.2488 837.4872,-99.7567 845.6013,-84.7155"/>
<polygon fill="#191970" stroke="#191970" points="848.7402,-86.2643 850.1611,-75.7652 842.503,-83.0867 848.7402,-86.2643"/>
</g>
<!-- Node15 -->
<g id="node15" class="node">
<title>Node15</title>
<g id="a_node15"><a xlink:href="_g_p_i_olis_8h.html" target="_top" xlink:title="Threading and interrupts.">
<polygon fill="#ffffff" stroke="#000000" points="854,-112.5 854,-131.5 913,-131.5 913,-112.5 854,-112.5"/>
<text text-anchor="middle" x="883.5" y="-119.5" font-family="Helvetica,sans-Serif" font-size="10.00" fill="#000000">GPIOlis.h</text>
</a>
</g>
</g>
<!-- Node1&#45;&gt;Node15 -->
<g id="edge14" class="edge">
<title>Node1&#45;&gt;Node15</title>
<path fill="none" stroke="#191970" d="M630.6803,-176.3647C685.4424,-164.9881 767.9001,-147.6931 839.5,-132 840.9348,-131.6855 842.3954,-131.3635 843.8704,-131.0367"/>
<polygon fill="#191970" stroke="#191970" points="844.697,-134.4383 853.6919,-128.8399 843.169,-127.6071 844.697,-134.4383"/>
</g>
<!-- Node12 -->
<g id="node12" class="node">
<title>Node12</title>
<g id="a_node12"><a xlink:title=" ">
<polygon fill="#ffffff" stroke="#bfbfbf" points="756,-.5 756,-19.5 809,-19.5 809,-.5 756,-.5"/>
<text text-anchor="middle" x="782.5" y="-7.5" font-family="Helvetica,sans-Serif" font-size="10.00" fill="#000000">QObject</text>
</a>
</g>
</g>
<!-- Node11&#45;&gt;Node12 -->
<g id="edge11" class="edge">
<title>Node11&#45;&gt;Node12</title>
<path fill="none" stroke="#191970" d="M841.9586,-56.2455C831.2213,-47.8943 815.5527,-35.7076 802.9953,-25.9408"/>
<polygon fill="#191970" stroke="#191970" points="804.9401,-23.0194 794.8977,-19.6427 800.6425,-28.5449 804.9401,-23.0194"/>
</g>
<!-- Node13 -->
<g id="node13" class="node">
<title>Node13</title>
<g id="a_node13"><a xlink:title=" ">
<polygon fill="#ffffff" stroke="#bfbfbf" points="827.5,-.5 827.5,-19.5 881.5,-19.5 881.5,-.5 827.5,-.5"/>
<text text-anchor="middle" x="854.5" y="-7.5" font-family="Helvetica,sans-Serif" font-size="10.00" fill="#000000">iostream</text>
</a>
</g>
</g>
<!-- Node11&#45;&gt;Node13 -->
<g id="edge12" class="edge">
<title>Node11&#45;&gt;Node13</title>
<path fill="none" stroke="#191970" d="M854.5,-56.2455C854.5,-48.9382 854.5,-38.6944 854.5,-29.7046"/>
<polygon fill="#191970" stroke="#191970" points="858.0001,-29.6426 854.5,-19.6427 851.0001,-29.6427 858.0001,-29.6426"/>
</g>
<!-- Node14 -->
<g id="node14" class="node">
<title>Node14</title>
<g id="a_node14"><a xlink:title=" ">
<polygon fill="#ffffff" stroke="#bfbfbf" points="900,-.5 900,-19.5 941,-19.5 941,-.5 900,-.5"/>
<text text-anchor="middle" x="920.5" y="-7.5" font-family="Helvetica,sans-Serif" font-size="10.00" fill="#000000">string</text>
</a>
</g>
</g>
<!-- Node11&#45;&gt;Node14 -->
<g id="edge13" class="edge">
<title>Node11&#45;&gt;Node14</title>
<path fill="none" stroke="#191970" d="M865.9963,-56.2455C875.7442,-47.9746 889.9259,-35.9416 901.3798,-26.2232"/>
<polygon fill="#191970" stroke="#191970" points="903.7747,-28.7813 909.1354,-19.6427 899.2459,-23.4437 903.7747,-28.7813"/>
</g>
<!-- Node15&#45;&gt;Node11 -->
<g id="edge15" class="edge">
<title>Node15&#45;&gt;Node11</title>
<path fill="none" stroke="#191970" d="M878.4486,-112.2455C874.4981,-104.617 868.8903,-93.7881 864.0942,-84.5267"/>
<polygon fill="#191970" stroke="#191970" points="867.2001,-82.9131 859.4935,-75.6427 860.9841,-86.1321 867.2001,-82.9131"/>
</g>
</g>
</svg>
